<svg width="550" height="490" viewBox="0 0 550 490" fill="none" xmlns="http://www.w3.org/2000/svg">
<path d="M501.13 75.307C519.53 75.307 534.445 61.2582 534.445 43.9281C534.445 26.598 519.53 12.5492 501.13 12.5492C482.73 12.5492 467.815 26.598 467.815 43.9281C467.815 61.2582 482.73 75.307 501.13 75.307Z" fill="#EBEBEB"/>
<path d="M502.655 74.5709C520.212 74.5709 534.445 61.1653 534.445 44.6286C534.445 28.0919 520.212 14.6863 502.655 14.6863C485.098 14.6863 470.865 28.0919 470.865 44.6286C470.865 61.1653 485.098 74.5709 502.655 74.5709Z" fill="#DBDBDB"/>
<path d="M532.31 46.9319C533.66 31.4967 521.469 17.953 505.082 16.6812C488.694 15.4095 474.314 26.8913 472.964 42.3266C471.614 57.7619 483.804 71.3056 500.192 72.5773C516.58 73.849 530.959 62.3672 532.31 46.9319Z" fill="white"/>
<path opacity="0.5" d="M531.76 38.6804C518.21 46.4094 495.924 59.1129 483.457 66.0702C479.941 63.2708 477.158 59.744 475.327 55.7649L516.521 19.8032C520.371 21.7101 523.73 24.3885 526.363 27.6499C528.996 30.9112 530.838 34.6764 531.76 38.6804Z" fill="#EBEBEB"/>
<path opacity="0.5" d="M532.416 45.6615C532.312 48.7836 531.647 51.8666 530.45 54.7795L493.315 71.3179C491.695 70.821 490.126 70.1893 488.626 69.4302C499.844 63.2565 520.34 52.1439 532.416 45.6615Z" fill="#EBEBEB"/>
<path d="M502.958 18.6161H502.378V22.8664H502.958V18.6161Z" fill="#C7C7C7"/>
<path d="M489.104 21.9434L488.602 22.2164L490.858 25.8973L491.361 25.6243L489.104 21.9434Z" fill="#C7C7C7"/>
<path d="M478.859 31.3588L478.569 31.8318L482.477 33.957L482.767 33.484L478.859 31.3588Z" fill="#C7C7C7"/>
<path d="M479.563 44.3555H475.05V44.9016H479.563V44.3555Z" fill="#C7C7C7"/>
<path d="M482.497 55.2508L478.589 57.376L478.879 57.8489L482.787 55.7238L482.497 55.2508Z" fill="#C7C7C7"/>
<path d="M490.885 63.3609L488.631 67.043L489.133 67.3158L491.387 63.6338L490.885 63.3609Z" fill="#C7C7C7"/>
<path d="M502.958 66.3907H502.378V70.6411H502.958V66.3907Z" fill="#C7C7C7"/>
<path d="M514.471 63.3336L513.969 63.6067L516.226 67.2876L516.728 67.0145L514.471 63.3336Z" fill="#C7C7C7"/>
<path d="M522.787 55.2452L522.497 55.7181L526.405 57.8433L526.695 57.3704L522.787 55.2452Z" fill="#C7C7C7"/>
<path d="M530.273 44.3555H525.76V44.9016H530.273V44.3555Z" fill="#C7C7C7"/>
<path d="M526.431 31.3693L522.523 33.4951L522.813 33.968L526.721 31.8422L526.431 31.3693Z" fill="#C7C7C7"/>
<path d="M516.214 21.9673L513.96 25.6493L514.463 25.9221L516.717 22.2401L516.214 21.9673Z" fill="#C7C7C7"/>
<path d="M503.096 20.5393L504.08 46.5163L501.243 46.4807L502.327 20.5275L503.096 20.5393Z" fill="#C7C7C7"/>
<path d="M520.277 35.5698L501.722 46.7181L500.374 44.3911L519.912 34.9287L520.277 35.5698Z" fill="#A6A6A6"/>
<path d="M503.626 44.6287C503.626 44.8095 503.569 44.9862 503.462 45.1366C503.356 45.2869 503.204 45.4041 503.027 45.4732C502.849 45.5424 502.654 45.5605 502.466 45.5253C502.278 45.49 502.105 45.4029 501.969 45.2751C501.833 45.1472 501.741 44.9843 501.703 44.807C501.666 44.6297 501.685 44.4459 501.758 44.2788C501.832 44.1118 501.956 43.969 502.116 43.8685C502.276 43.7681 502.463 43.7145 502.655 43.7145C502.913 43.7145 503.159 43.8108 503.341 43.9822C503.524 44.1537 503.626 44.3862 503.626 44.6287Z" fill="#C7C7C7"/>
<path d="M390.595 327.407C390.595 327.407 410.335 323.192 421.15 313.813C431.966 304.434 438.003 287.61 438.003 287.61C430.502 288.96 423.107 290.789 415.869 293.084C413.159 295.71 410.901 298.718 409.175 302C409.009 299.877 409.009 297.747 409.175 295.624C406.651 296.653 404.289 298.003 402.154 299.637C393.129 307.034 390.595 327.407 390.595 327.407Z" fill="#DBDBDB"/>
<path d="M425.688 295.779C428.373 294.021 431.108 292.336 433.793 290.567C433.828 290.546 433.853 290.513 433.863 290.475C433.872 290.438 433.865 290.398 433.844 290.365C433.822 290.332 433.787 290.308 433.747 290.299C433.707 290.29 433.665 290.297 433.629 290.317C428.587 293.179 423.545 296.253 418.68 299.435C416.991 300.551 415.327 301.715 413.638 302.902L413.978 302.344C414.57 301.418 415.239 300.504 415.818 299.59C417.057 297.724 418.461 295.96 420.016 294.318C420.016 294.259 420.016 294.164 419.915 294.235C418.377 295.897 416.839 297.548 415.44 299.317C414.772 300.16 414.18 301.038 413.562 301.929C413.26 302.392 412.957 302.855 412.68 303.329L412.377 303.804C409.856 305.692 407.335 307.663 404.978 309.741C403.516 311.031 402.1 312.36 400.73 313.73C401.499 311.486 402.167 309.206 403.049 306.998C403.049 306.982 403.043 306.967 403.031 306.956C403.019 306.945 403.003 306.939 402.986 306.939C402.97 306.939 402.954 306.945 402.942 306.956C402.93 306.967 402.923 306.982 402.923 306.998C402.066 309.373 401.121 311.652 400.402 314.05C398.89 315.586 397.453 317.169 396.091 318.799C396.091 318.704 396.091 318.597 396.154 318.502C396.381 317.624 396.621 316.745 396.86 315.879C397.339 314.193 397.869 312.531 398.474 310.88C399.608 307.454 401.402 304.255 403.768 301.442C403.831 301.382 403.768 301.299 403.68 301.359C399.977 305.699 397.389 310.786 396.117 316.223C395.898 317.014 395.696 317.806 395.511 318.597C395.411 319.013 395.297 319.452 395.222 319.88C394.617 320.671 394.037 321.443 393.482 322.195C390.114 327.041 387.312 332.215 385.125 337.629C382.671 343.707 380.567 349.906 378.822 356.198C378.822 356.223 378.833 356.247 378.852 356.265C378.871 356.282 378.896 356.293 378.923 356.293C378.95 356.293 378.975 356.282 378.994 356.265C379.013 356.247 379.024 356.223 379.024 356.198C382.894 345.322 386.827 334.293 393.432 324.569C394.829 322.521 396.336 320.539 397.944 318.633C401.211 318.425 404.436 317.819 407.537 316.828C410.925 315.754 414.156 314.282 417.155 312.447C418.867 311.369 420.512 310.2 422.083 308.945C422.159 308.886 422.083 308.791 422.007 308.85C419.249 310.941 416.205 312.674 412.957 314.003C409.766 315.381 406.427 316.436 402.999 317.149C401.549 317.446 400.075 317.671 398.587 317.861C400.414 315.741 402.358 313.712 404.411 311.783C405.079 311.153 405.759 310.595 406.453 309.954C408.75 308.439 411.189 307.124 413.739 306.024C416.978 304.552 420.155 302.985 423.356 301.454C425.171 300.587 426.961 299.708 428.776 298.865C428.852 298.865 428.776 298.723 428.713 298.759C425.461 300.231 422.171 301.62 418.894 303.033C415.818 304.35 412.705 305.692 409.743 307.259L409.365 307.461C412.037 305.277 414.81 303.187 417.646 301.169C420.31 299.34 422.991 297.544 425.688 295.779Z" fill="#A6A6A6"/>
<path d="M424.566 305.36C422.953 306.024 421.327 306.606 419.739 307.307C418.15 308.007 416.549 308.874 414.999 309.74C414.936 309.74 414.999 309.859 415.062 309.835C416.638 309.123 418.226 308.458 419.789 307.722C421.352 306.986 422.965 306.155 424.604 305.478C424.68 305.454 424.642 305.324 424.566 305.36Z" fill="#A6A6A6"/>
<path d="M326.511 233.745C330.155 238.175 332.215 243.578 332.398 249.179C332.473 250.841 332.184 253.168 331.982 255.899C336.908 258.589 341.274 262.101 344.864 266.264C340.921 264.109 336.395 263.089 331.843 263.331C331.953 265.198 332.206 267.055 332.599 268.887C335.471 268.883 338.315 269.412 340.969 270.443C338.371 270.412 335.795 270.893 333.406 271.855C336.923 282.398 347.385 293.226 376.264 297.821C379.32 284.892 377.511 271.366 371.146 259.556C362.499 243.528 326.511 233.745 326.511 233.745Z" fill="#DBDBDB"/>
<path d="M386.247 342.924C385.759 338.42 385.137 333.933 384.381 329.461C382.921 320.501 380.977 311.616 378.558 302.843C377.436 298.723 376.051 294.671 374.41 290.709C374.499 289.988 374.537 289.262 374.524 288.536C374.524 287.658 374.524 286.791 374.524 285.912C374.524 284.179 374.423 282.434 374.259 280.7C373.964 277.261 373.37 273.85 372.482 270.502C371.952 268.567 371.347 266.655 370.742 264.744C370.742 264.728 370.736 264.713 370.724 264.702C370.712 264.691 370.696 264.685 370.679 264.685C370.663 264.685 370.647 264.691 370.635 264.702C370.623 264.713 370.616 264.728 370.616 264.744C371.572 268.086 372.283 271.485 372.747 274.919C373.259 278.304 373.583 281.712 373.717 285.129C373.717 286.067 373.717 286.993 373.717 287.931C373.717 288.323 373.717 288.726 373.717 289.118C372.305 285.863 370.684 282.691 368.864 279.62C365.926 274.76 362.619 270.105 358.969 265.694C358.963 265.18 358.886 264.669 358.742 264.174C358.604 263.568 358.465 262.987 358.314 262.358C358.02 261.115 357.692 259.88 357.331 258.653C356.612 256.184 355.667 253.809 354.81 251.375C354.81 251.36 354.803 251.345 354.791 251.334C354.779 251.322 354.763 251.316 354.746 251.316C354.73 251.316 354.714 251.322 354.702 251.334C354.69 251.345 354.683 251.36 354.683 251.375C355.452 253.75 355.944 256.279 356.536 258.725C356.826 259.912 357.116 261.099 357.394 262.369L357.809 264.198C357.805 264.241 357.805 264.285 357.809 264.328C356.637 262.939 355.452 261.574 354.23 260.232C348.721 254.142 342.671 248.526 336.582 242.946C335.839 242.257 335.07 241.593 334.314 240.916C334.251 240.856 334.162 240.916 334.225 241.011C340.036 246.722 345.759 252.503 351.179 258.546C352.44 259.983 353.7 261.443 354.961 262.916C354.305 262.488 353.7 262.084 352.994 261.728C351.318 260.695 349.616 259.686 347.864 258.76C346.112 257.834 344.347 256.932 342.545 256.101C340.742 255.27 338.763 254.522 336.923 253.548C336.847 253.548 336.784 253.631 336.86 253.655C338.684 254.454 340.444 255.374 342.129 256.409C343.881 257.395 345.646 258.38 347.36 259.413C349.074 260.446 350.763 261.42 352.402 262.453C353.814 263.319 355.188 264.257 356.65 265.041C359.996 269.096 363.086 273.334 365.902 277.732C367.645 280.501 369.24 283.35 370.679 286.269L369.646 285.841L366.999 284.737L361.894 282.636C358.654 281.318 355.364 280.095 352.188 278.635C350.397 277.845 348.666 276.94 347.007 275.928C346.931 275.928 346.868 275.987 346.944 276.035C352.856 279.881 359.549 282.588 366.053 285.319L368.889 286.506C369.671 286.827 370.452 287.195 371.259 287.48C373.198 291.565 374.828 295.774 376.137 300.076C378.728 308.736 380.831 317.518 382.44 326.386C384.091 335.266 385.213 344.194 386.083 353.194C386.184 354.31 386.297 355.438 386.423 356.554C386.423 356.648 386.463 356.739 386.534 356.805C386.605 356.872 386.701 356.91 386.801 356.91C386.902 356.91 386.998 356.872 387.069 356.805C387.14 356.739 387.179 356.648 387.179 356.554C387.255 351.971 386.751 347.459 386.247 342.924Z" fill="#A6A6A6"/>
<path d="M368.688 267.819C368.158 265.064 367.427 262.357 366.583 259.651C366.583 259.635 366.576 259.62 366.564 259.609C366.552 259.597 366.536 259.591 366.52 259.591C366.503 259.591 366.487 259.597 366.475 259.609C366.463 259.62 366.457 259.635 366.457 259.651C367.188 262.31 367.717 265.017 368.234 267.712C368.751 270.407 369.255 273.221 369.671 276.023H369.746C369.558 273.271 369.204 270.532 368.688 267.819Z" fill="#A6A6A6"/>
<path d="M356.246 275.322C354.228 274.08 352.123 272.97 349.944 271.998C348.885 271.487 347.814 271.001 346.755 270.514C345.696 270.027 344.511 269.588 343.427 269.077C343.351 269.077 343.276 269.149 343.364 269.184C344.41 269.683 345.419 270.288 346.452 270.823L349.654 272.473C351.732 273.61 353.869 274.649 356.057 275.583C356.094 275.607 356.139 275.616 356.183 275.608C356.227 275.6 356.265 275.576 356.291 275.542C356.316 275.507 356.325 275.465 356.317 275.423C356.308 275.382 356.283 275.346 356.246 275.322Z" fill="#A6A6A6"/>
<path opacity="0.1" d="M390.961 295.209C390.961 295.209 409.213 291.101 417.596 279.561C425.612 268.543 428.196 249.761 428.398 248.111C428.07 249.63 424.302 266.038 411.873 273.684C402.356 279.549 393.154 284.369 390.961 295.209Z" fill="#A6A6A6"/>
<path d="M407.814 265.492C404.567 268.305 402.233 271.928 401.083 275.94C402.43 272.026 404.75 268.472 407.852 265.575C407.965 265.527 407.877 265.432 407.814 265.492Z" fill="#A6A6A6"/>
<path d="M390.961 295.209C390.961 295.209 409.213 291.101 417.596 279.561C425.613 268.543 428.197 249.761 428.398 248.111C428.404 248.071 428.404 248.031 428.398 247.992C428.398 247.992 419.575 259.722 410.436 262.714C401.297 265.706 388.276 276.047 390.961 295.209Z" fill="#DBDBDB"/>
<path d="M425.184 254.462C423.55 257.625 421.663 260.665 419.537 263.557C417.39 266.305 414.844 268.755 411.974 270.834C409.453 272.687 406.932 274.396 404.41 276.189L404.474 276.106C404.94 275.441 405.444 274.812 405.974 274.182C407.007 272.924 408.154 271.737 409.301 270.561C411.57 268.246 413.89 265.967 415.919 263.438C417.052 262.049 418.035 260.557 418.856 258.986C418.856 258.914 418.768 258.879 418.73 258.986C415.768 264.803 409.843 268.484 405.633 273.423C405.03 274.118 404.466 274.844 403.944 275.595C403.523 276.142 403.168 276.731 402.885 277.352C400.575 279.1 398.486 281.092 396.658 283.289C396.818 282.162 397.062 281.047 397.389 279.952C397.812 278.42 398.466 276.953 399.331 275.595C399.331 275.524 399.255 275.453 399.217 275.524C398.33 276.885 397.615 278.34 397.087 279.858C396.702 281.065 396.477 282.314 396.419 283.574C395.521 284.711 394.7 285.901 393.961 287.135L394.188 286.031C394.541 284.322 394.944 282.612 395.448 280.914C396.307 277.471 397.791 274.194 399.835 271.226C399.835 271.226 399.772 271.096 399.721 271.155C397.632 274.089 395.994 277.287 394.856 280.653C394.276 282.339 393.81 284.06 393.406 285.782C393.205 286.637 393.015 287.48 392.852 288.334C392.763 288.774 392.663 289.225 392.587 289.676C390.777 293.423 389.363 297.328 388.364 301.335C386.582 308.508 385.289 315.78 384.494 323.109C383.545 330.772 383.124 338.486 383.234 346.201C383.234 347.162 383.31 348.136 383.36 349.098C383.36 349.347 383.776 349.383 383.788 349.098C383.965 345.275 384.066 341.464 384.305 337.653C384.545 333.842 384.898 330.019 385.339 326.219C386.158 318.746 387.42 311.322 389.12 303.982C390.595 297.702 392.511 291.362 396.167 285.853C397.983 283.115 400.203 280.632 402.759 278.48C405.28 276.32 408.116 274.42 410.814 272.413C413.547 270.458 416.03 268.211 418.213 265.717C420.441 262.937 422.382 259.964 424.011 256.837L425.272 254.462C425.335 254.462 425.222 254.391 425.184 254.462Z" fill="#A6A6A6"/>
<path d="M323.99 287.61C323.99 287.61 323.7 312.044 339.217 319.096C354.734 326.148 363.041 320.283 373.591 322.658C373.188 322.076 365.662 311.89 353.688 309.076C341.322 306.167 327.683 297.785 323.99 287.61Z" fill="#DBDBDB"/>
<path opacity="0.1" d="M323.99 287.61C323.99 287.61 323.7 312.044 339.217 319.096C354.734 326.148 363.041 320.283 373.591 322.658C368.021 320.154 362.065 318.498 355.944 317.755C346.112 316.627 327.418 310.619 323.99 287.61Z" fill="#A6A6A6"/>
<path d="M374.574 323.073C372.727 321.49 370.646 320.167 368.398 319.143C368.07 318.989 367.73 318.87 367.389 318.74C367.049 318.609 367.049 318.36 366.873 318.17C366.406 317.719 365.915 317.279 365.41 316.864C364.437 316.074 363.391 315.367 362.284 314.751C359.763 313.326 356.902 312.376 354.267 311.011C354.192 311.011 354.129 311.082 354.267 311.118C355.528 311.747 356.788 312.447 358.049 313.148C359.309 313.848 360.57 314.466 361.73 315.19C362.812 315.839 363.841 316.565 364.805 317.363C365.083 317.588 365.335 317.837 365.599 318.087C363.886 317.535 362.134 317.095 360.356 316.769C357.52 316.223 354.646 315.843 351.809 315.273C350.417 314.994 349.041 314.646 347.688 314.228C346.427 313.255 345.167 312.281 343.906 311.224C342.43 309.949 341.083 308.546 339.885 307.033C339.885 307.033 339.721 307.033 339.772 307.105C341.656 309.502 343.788 311.717 346.137 313.718C345.469 313.468 344.801 313.219 344.158 312.934C338.827 310.689 334.253 307.107 330.935 302.581C330.935 302.51 330.771 302.581 330.822 302.641C333.636 306.528 337.276 309.822 341.511 312.317C343.631 313.566 345.899 314.578 348.267 315.332C351.022 316.132 353.831 316.755 356.675 317.196C359.457 317.625 362.204 318.24 364.894 319.037C367.367 319.831 369.693 320.985 371.789 322.456C375.743 325.347 378.928 329.067 381.091 333.319C383.858 338.939 385.589 344.961 386.209 351.128C386.209 351.389 386.675 351.389 386.65 351.128C385.894 340.906 382.982 330.209 374.574 323.073Z" fill="#A6A6A6"/>
<path d="M356.561 315.166C355.753 314.026 354.657 313.092 353.372 312.447C351.907 311.722 350.618 310.714 349.591 309.491C349.591 309.42 349.427 309.491 349.477 309.551C350.411 310.67 351.546 311.627 352.83 312.376C354.241 313.083 355.485 314.053 356.486 315.226L356.561 315.166Z" fill="#A6A6A6"/>
<path d="M364.805 341.119L365.511 354.559L367.667 395.626H400.213L402.381 354.559L403.087 341.119H364.805Z" fill="#EBEBEB"/>
<path d="M364.805 341.119L365.511 354.559H402.381L403.087 341.119H364.805Z" fill="#DBDBDB"/>
<path d="M362.524 348.338H405.382V335.516H362.524V348.338Z" fill="#EBEBEB"/>
<path d="M58.0215 132.722L52.4248 144.345L56.2063 145.948C56.7482 146.185 57.2096 146.559 57.539 147.029C57.8684 147.499 58.0529 148.045 58.0719 148.608C58.0719 149.237 58.1727 149.866 58.2736 150.507C58.3667 151.058 58.2985 151.622 58.0764 152.139C57.8543 152.655 57.4866 153.105 57.0131 153.44L53.6349 155.707L61.5257 166.084L64.9039 163.816C65.3888 163.49 65.9602 163.298 66.5545 163.26C67.1488 163.222 67.7425 163.341 68.2695 163.602C68.8672 163.899 69.4816 164.164 70.1098 164.398C70.6669 164.598 71.1547 164.938 71.5194 165.382C71.8841 165.827 72.1117 166.357 72.1771 166.915L72.5804 170.809L86.0553 169.551L85.652 165.645C85.5977 165.087 85.7093 164.526 85.9742 164.025C86.2391 163.524 86.6469 163.102 87.152 162.807L87.9839 162.273C88.2486 162.095 88.5259 161.905 88.778 161.703C89.2363 161.348 89.7901 161.121 90.3776 161.045C90.9652 160.97 91.5635 161.049 92.1058 161.275L95.8873 162.902L101.484 151.279L97.7025 149.664C97.1608 149.425 96.6992 149.051 96.368 148.582C96.0368 148.113 95.8487 147.568 95.8243 147.005C95.7988 146.373 95.7357 145.742 95.6352 145.117C95.5407 144.566 95.6082 144.002 95.8304 143.485C96.0527 142.968 96.4211 142.518 96.8957 142.185L100.274 139.905L92.3831 129.529L89.0049 131.808C88.5188 132.132 87.9468 132.322 87.3525 132.358C86.7582 132.394 86.1651 132.273 85.6394 132.01C85.0444 131.724 84.4343 131.466 83.8116 131.238C83.2662 131.04 82.7888 130.705 82.4311 130.27C82.0733 129.835 81.8489 129.316 81.7822 128.769L81.3662 124.875L67.8913 126.133L68.2947 130.027C68.3422 130.57 68.2325 131.116 67.9772 131.605C67.722 132.094 67.3307 132.509 66.8451 132.805C66.5581 132.97 66.2804 133.148 66.0131 133.34C65.7358 133.518 65.4711 133.708 65.2064 133.898C64.7489 134.258 64.1934 134.49 63.6029 134.567C63.0125 134.645 62.4108 134.565 61.8661 134.337L58.0215 132.722ZM70.488 139.311C72.2698 138.1 74.3933 137.413 76.5895 137.339C78.7858 137.264 80.9562 137.805 82.8258 138.893C84.6954 139.982 86.1803 141.568 87.0923 143.451C88.0044 145.334 88.3027 147.43 87.9494 149.473C87.5961 151.516 86.6072 153.414 85.1078 154.928C83.6084 156.441 81.6659 157.502 79.5264 157.975C77.3868 158.448 75.1463 158.312 73.0886 157.585C71.0309 156.858 69.2484 155.572 67.9669 153.891C66.2507 151.641 65.5534 148.841 66.0285 146.107C66.5037 143.373 68.1123 140.929 70.5006 139.311H70.488Z" fill="#EBEBEB"/>
<path d="M506.765 249.607L498.546 254.071L499.996 256.445C500.204 256.787 500.308 257.177 500.294 257.571C500.281 257.965 500.151 258.348 499.92 258.677C499.668 259.045 499.428 259.437 499.214 259.864C499.028 260.217 498.743 260.514 498.389 260.724C498.036 260.933 497.628 261.047 497.21 261.052H494.298V269.992H497.21C497.628 269.997 498.036 270.11 498.389 270.319C498.743 270.529 499.028 270.826 499.214 271.179C499.426 271.587 499.662 271.983 499.92 272.366C500.151 272.695 500.281 273.078 500.294 273.472C500.308 273.866 500.204 274.256 499.996 274.598L498.546 276.973L506.765 281.437L508.227 279.062C508.44 278.723 508.748 278.447 509.117 278.262C509.486 278.078 509.902 277.993 510.319 278.017H511.013H511.718C512.132 277.994 512.545 278.078 512.911 278.26C513.278 278.442 513.585 278.716 513.798 279.05L515.26 281.425L523.479 276.961L522.029 274.586C521.82 274.244 521.717 273.853 521.733 273.458C521.748 273.063 521.882 272.681 522.118 272.354C522.376 271.971 522.612 271.575 522.824 271.167C523.007 270.813 523.292 270.514 523.646 270.304C524 270.094 524.409 269.982 524.828 269.98H527.727V261.04H524.828C524.409 261.038 524 260.925 523.646 260.715C523.292 260.506 523.007 260.207 522.824 259.853C522.609 259.461 522.37 259.081 522.118 258.665C521.883 258.34 521.75 257.96 521.734 257.567C521.719 257.174 521.821 256.786 522.029 256.445L523.479 254.071L515.26 249.607L513.811 251.981C513.598 252.32 513.29 252.597 512.921 252.781C512.552 252.965 512.136 253.05 511.718 253.026H511.013H510.319C509.902 253.05 509.486 252.965 509.117 252.781C508.748 252.597 508.44 252.32 508.227 251.981L506.765 249.607ZM511.013 258.155C512.551 258.155 514.055 258.585 515.335 259.39C516.614 260.196 517.611 261.34 518.199 262.68C518.787 264.019 518.941 265.492 518.64 266.914C518.338 268.335 517.596 269.64 516.507 270.664C515.419 271.688 514.032 272.385 512.522 272.666C511.013 272.947 509.448 272.801 508.027 272.244C506.607 271.688 505.393 270.747 504.54 269.541C503.687 268.335 503.233 266.917 503.235 265.468C503.238 264.505 503.444 263.551 503.839 262.663C504.235 261.775 504.813 260.968 505.541 260.291C506.268 259.614 507.13 259.078 508.078 258.716C509.026 258.353 510.04 258.171 511.063 258.178L511.013 258.155Z" fill="#EBEBEB"/>
<path d="M27.2273 110.129L32.9878 117.252L35.2946 115.59C35.6259 115.349 36.0232 115.2 36.4404 115.162C36.8575 115.125 37.2775 115.199 37.6517 115.377C38.0803 115.567 38.5215 115.733 38.9122 115.887C39.3061 116.016 39.6545 116.246 39.9192 116.549C40.1838 116.853 40.3544 117.22 40.4123 117.609L40.7904 120.327L50.2065 119.14L49.8283 116.433C49.7762 116.042 49.8406 115.645 50.0142 115.287C50.1879 114.928 50.4639 114.622 50.8115 114.403C51.2023 114.154 51.5678 113.881 51.9334 113.596C52.2479 113.337 52.6324 113.166 53.044 113.101C53.4557 113.036 53.8785 113.08 54.2653 113.228L56.9502 114.284L60.5931 105.974L57.946 105.024C57.564 104.868 57.2349 104.616 56.9948 104.295C56.7546 103.975 56.6128 103.599 56.5847 103.207C56.5847 102.982 56.5847 102.768 56.509 102.542C56.4334 102.317 56.509 102.115 56.4082 101.901C56.3231 101.516 56.3549 101.115 56.4997 100.746C56.6446 100.376 56.8968 100.053 57.2275 99.8118L59.5469 98.1378L53.7863 91.0143L51.467 92.6764C51.1343 92.9156 50.7373 93.0623 50.3208 93.1C49.9042 93.1378 49.4848 93.0651 49.1098 92.8901C48.7006 92.697 48.2797 92.5265 47.8493 92.3796C47.4554 92.2503 47.107 92.0212 46.8424 91.7175C46.5778 91.4138 46.4071 91.0472 46.3493 90.6581L45.9711 87.9393L36.5551 89.1266L36.9332 91.8454C36.9837 92.235 36.92 92.6302 36.7489 92.9881C36.5778 93.346 36.3059 93.6529 35.9626 93.8756C35.573 94.1247 35.1984 94.3942 34.8408 94.6829C34.5236 94.9412 34.137 95.1123 33.7234 95.1772C33.3098 95.2421 32.8852 95.1984 32.4962 95.0509L29.8113 93.9943L26.1685 102.305L28.8534 103.362C29.2073 103.508 29.5151 103.738 29.747 104.029C29.9788 104.32 30.1269 104.663 30.1769 105.024L30.2525 105.677C30.2525 105.902 30.3155 106.116 30.366 106.33C30.4466 106.716 30.4116 107.117 30.2646 107.486C30.1177 107.855 29.8648 108.178 29.534 108.419L27.2273 110.129ZM35.6727 105.048C35.476 103.611 35.736 102.151 36.42 100.854C37.1039 99.5559 38.1809 98.4784 39.515 97.7573C40.849 97.0362 42.3801 96.7038 43.9147 96.8023C45.4493 96.9007 46.9184 97.4255 48.1364 98.3104C49.3543 99.1952 50.2663 100.4 50.7571 101.773C51.2479 103.146 51.2954 104.626 50.8936 106.024C50.4919 107.422 49.6589 108.677 48.5 109.63C47.3411 110.582 45.9083 111.19 44.3829 111.376C43.3677 111.5 42.3363 111.435 41.3481 111.183C40.3599 110.93 39.4344 110.497 38.6249 109.906C37.8153 109.316 37.1378 108.581 36.6311 107.743C36.1245 106.905 35.7988 105.981 35.6727 105.024V105.048Z" fill="#EBEBEB"/>
<path d="M3.29004 395.626L70.5511 395.329L137.799 395.234L272.309 395.032L406.818 395.222L474.067 395.329L541.328 395.626L474.067 395.911L406.818 396.018L272.309 396.219L137.799 396.018L70.5511 395.911L3.29004 395.626Z" fill="#263238"/>
<path d="M445.113 445.965C503.04 445.965 550 438.938 550 430.27C550 421.601 503.04 414.574 445.113 414.574C387.185 414.574 340.225 421.601 340.225 430.27C340.225 438.938 387.185 445.965 445.113 445.965Z" fill="#EBEBEB"/>
<path d="M234.998 490C358.713 490 459.004 476.935 459.004 460.817C459.004 444.7 358.713 431.635 234.998 431.635C111.283 431.635 10.9917 444.7 10.9917 460.817C10.9917 476.935 111.283 490 234.998 490Z" fill="#EBEBEB"/>
<path d="M443.398 10.4478H101.018V223.594H443.398V10.4478Z" fill="#EBEBEB"/>
<path d="M451.755 0H92.8745V10.4359H451.755V0Z" fill="#455A64"/>
<path d="M171.581 39.6421H117.518V99.9779H171.581V39.6421Z" fill="white"/>
<path d="M146.497 43.75C146.499 44.115 146.387 44.4724 146.173 44.7768C145.959 45.0813 145.654 45.319 145.297 45.4597C144.939 45.6005 144.545 45.6379 144.165 45.5673C143.785 45.4967 143.436 45.3212 143.162 45.0631C142.888 44.805 142.701 44.476 142.626 44.118C142.551 43.7599 142.591 43.3889 142.74 43.0522C142.89 42.7154 143.142 42.4282 143.466 42.2268C143.789 42.0255 144.168 41.9193 144.556 41.9217C144.811 41.9217 145.063 41.969 145.299 42.0608C145.534 42.1527 145.748 42.2874 145.928 42.4572C146.109 42.627 146.252 42.8285 146.349 43.0503C146.447 43.2722 146.497 43.5099 146.497 43.75Z" fill="#455A64"/>
<path d="M127.803 51.7283C133.274 51.3365 138.745 51.3128 144.19 51.2534C149.636 51.1941 155.119 51.3365 160.577 51.7283C155.106 52.132 149.648 52.1557 144.19 52.2151C138.732 52.2745 133.274 52.132 127.803 51.7283Z" fill="#EBEBEB"/>
<path d="M127.803 56.5009C133.729 55.8519 139.714 55.8519 145.64 56.5009C139.713 57.1341 133.73 57.1341 127.803 56.5009Z" fill="#EBEBEB"/>
<path d="M127.803 61.2619C131.585 60.8939 135.367 60.8107 139.148 60.787C142.93 60.7633 146.711 60.8939 150.493 61.2619C146.711 61.6418 142.93 61.7249 139.148 61.7487C135.367 61.7724 131.61 61.6418 127.803 61.2619Z" fill="#EBEBEB"/>
<path d="M127.803 66.0346C132.556 65.6666 137.308 65.5716 142.06 65.5597C146.812 65.5478 151.564 65.6547 156.304 66.0346C151.564 66.4145 146.812 66.4976 142.06 66.5095C137.308 66.5214 132.556 66.4027 127.803 66.0346Z" fill="#EBEBEB"/>
<path d="M127.803 70.8073C131.938 70.4274 136.06 70.3443 140.182 70.3206C144.304 70.2968 148.438 70.4274 152.573 70.8073C148.438 71.1754 144.316 71.2704 140.182 71.2822C136.047 71.2941 131.938 71.1754 127.803 70.8073Z" fill="#EBEBEB"/>
<path d="M127.803 75.5682C133.085 75.1764 138.367 75.1526 143.648 75.0933C148.93 75.0339 154.224 75.1764 159.505 75.5682C154.224 75.9718 148.942 75.9956 143.648 76.0549C138.354 76.1143 133.085 75.9718 127.803 75.5682Z" fill="#EBEBEB"/>
<path d="M127.803 80.3409C134.61 79.6919 141.468 79.6919 148.274 80.3409C141.467 80.9741 134.61 80.9741 127.803 80.3409Z" fill="#EBEBEB"/>
<path d="M127.803 85.1017C133.274 84.7099 138.745 84.6862 144.19 84.6268C149.636 84.5675 155.119 84.7099 160.577 85.1017C155.106 85.5054 149.648 85.5292 144.19 85.5885C138.732 85.6479 133.274 85.5054 127.803 85.1017Z" fill="#EBEBEB"/>
<path d="M127.803 89.8745C133.274 89.4827 138.745 89.459 144.19 89.3996C149.636 89.3402 155.119 89.4708 160.577 89.8745C155.106 90.2782 149.648 90.3019 144.19 90.3494C138.732 90.3969 133.274 90.2663 127.803 89.8745Z" fill="#EBEBEB"/>
<path d="M427.415 91.4773H385.087V138.718H427.415V91.4773Z" fill="white"/>
<path d="M407.713 95.6088C407.716 95.8817 407.632 96.1491 407.473 96.3771C407.314 96.6052 407.086 96.7835 406.819 96.8896C406.552 96.9957 406.258 97.0246 405.974 96.9728C405.689 96.9211 405.427 96.7908 405.222 96.5987C405.016 96.4066 404.875 96.1612 404.818 95.8937C404.76 95.6263 404.789 95.3488 404.899 95.0964C405.009 94.8441 405.197 94.6283 405.437 94.4764C405.678 94.3246 405.961 94.2435 406.251 94.2435C406.442 94.2419 406.632 94.2761 406.81 94.344C406.987 94.4119 407.148 94.5122 407.284 94.6391C407.42 94.7661 407.528 94.9171 407.602 95.0835C407.675 95.25 407.713 95.4285 407.713 95.6088Z" fill="#455A64"/>
<path d="M391.868 104.359C394.795 103.969 397.765 103.969 400.692 104.359C397.765 104.749 394.795 104.749 391.868 104.359Z" fill="#EBEBEB"/>
<path d="M391.868 107.731C395.688 107.319 399.545 107.319 403.364 107.731C399.544 108.126 395.689 108.126 391.868 107.731Z" fill="#EBEBEB"/>
<path d="M391.868 111.091C395.406 110.695 398.982 110.695 402.52 111.091C398.983 111.502 395.405 111.502 391.868 111.091Z" fill="#EBEBEB"/>
<path d="M391.868 114.522C395.406 114.126 398.982 114.126 402.52 114.522C398.982 114.917 395.406 114.917 391.868 114.522Z" fill="#EBEBEB"/>
<path d="M391.868 117.834C394.937 117.422 398.052 117.422 401.121 117.834C398.051 118.23 394.938 118.23 391.868 117.834Z" fill="#EBEBEB"/>
<path d="M391.868 121.194C395.807 120.798 399.779 120.798 403.717 121.194C399.78 121.606 395.806 121.606 391.868 121.194Z" fill="#EBEBEB"/>
<path d="M391.868 124.566C395.115 124.17 398.403 124.17 401.65 124.566C398.403 124.962 395.115 124.962 391.868 124.566Z" fill="#EBEBEB"/>
<path d="M391.868 127.938C395.941 127.526 400.048 127.526 404.121 127.938C400.047 128.333 395.942 128.333 391.868 127.938Z" fill="#EBEBEB"/>
<path d="M391.868 131.298C395.942 130.902 400.047 130.902 404.121 131.298C400.048 131.709 395.941 131.709 391.868 131.298Z" fill="#EBEBEB"/>
<path d="M409.365 104.359C413.227 103.963 417.124 103.963 420.986 104.359C417.124 104.755 413.227 104.755 409.365 104.359Z" fill="#EBEBEB"/>
<path d="M409.365 107.731C411.892 107.319 414.476 107.319 417.003 107.731C414.474 108.126 411.893 108.126 409.365 107.731Z" fill="#EBEBEB"/>
<path d="M409.365 111.091C412.999 110.695 416.671 110.695 420.306 111.091C416.672 111.502 412.998 111.502 409.365 111.091Z" fill="#EBEBEB"/>
<path d="M409.365 114.522C412.898 114.126 416.469 114.126 420.003 114.522C416.469 114.917 412.898 114.917 409.365 114.522Z" fill="#EBEBEB"/>
<path d="M409.365 117.834C413.226 117.423 417.125 117.423 420.986 117.834C417.124 118.23 413.227 118.23 409.365 117.834Z" fill="#EBEBEB"/>
<path d="M409.365 121.194C412.434 120.798 415.547 120.798 418.617 121.194C415.548 121.606 412.433 121.606 409.365 121.194Z" fill="#EBEBEB"/>
<path d="M409.365 124.566C412.999 124.17 416.671 124.17 420.306 124.566C416.671 124.962 412.999 124.962 409.365 124.566Z" fill="#EBEBEB"/>
<path d="M409.365 127.938C412.167 127.526 415.02 127.526 417.823 127.938C415.019 128.333 412.168 128.333 409.365 127.938Z" fill="#EBEBEB"/>
<path d="M409.365 131.298C412.054 130.902 414.793 130.902 417.482 131.298C414.794 131.709 412.053 131.709 409.365 131.298Z" fill="#EBEBEB"/>
<path d="M194.295 76.8267H161.774V107.458H194.295V76.8267Z" fill="#FF6B35"/>
<path d="M179.976 79.9372C179.976 80.2989 179.862 80.6524 179.649 80.953C179.436 81.2537 179.133 81.488 178.778 81.6264C178.423 81.7648 178.033 81.801 177.656 81.7305C177.28 81.6599 176.934 81.4858 176.662 81.2301C176.391 80.9744 176.206 80.6486 176.131 80.2939C176.056 79.9393 176.095 79.5717 176.242 79.2376C176.388 78.9035 176.637 78.6179 176.956 78.417C177.276 78.2161 177.651 78.1089 178.035 78.1089C178.29 78.1089 178.542 78.1562 178.778 78.2481C179.013 78.3399 179.227 78.4746 179.408 78.6444C179.588 78.8142 179.731 79.0157 179.828 79.2376C179.926 79.4594 179.976 79.6971 179.976 79.9372Z" fill="#455A64"/>
<path d="M443.398 10.4478H101.018V24.0061H443.398V10.4478Z" fill="#DBDBDB"/>
<path d="M209.535 40.806L264.431 40.6987L319.339 40.806L264.431 40.9133L209.535 40.806Z" fill="#C7C7C7"/>
<path d="M209.535 45.0209L264.431 44.9136L319.339 45.0209L264.431 45.1401L209.535 45.0209Z" fill="#C7C7C7"/>
<path d="M209.535 49.2474L264.431 49.1282L319.339 49.2474L264.431 49.3547L209.535 49.2474Z" fill="#C7C7C7"/>
<path d="M209.535 53.4621L264.431 53.3429L319.339 53.4621L264.431 53.5694L209.535 53.4621Z" fill="#C7C7C7"/>
<path d="M209.535 57.6769L264.431 57.5696L319.339 57.6769L264.431 57.7842L209.535 57.6769Z" fill="#C7C7C7"/>
<path d="M209.535 61.8915L264.431 61.7842L319.339 61.8915L264.431 62.0107L209.535 61.8915Z" fill="#C7C7C7"/>
<path d="M209.535 66.1063L264.431 65.999L319.339 66.1063L264.431 66.2255L209.535 66.1063Z" fill="#C7C7C7"/>
<path d="M209.535 70.333L264.431 70.2137L319.339 70.333L264.431 70.4402L209.535 70.333Z" fill="#C7C7C7"/>
<path d="M209.535 74.5476L264.431 74.4283L319.339 74.5476L264.431 74.6548L209.535 74.5476Z" fill="#C7C7C7"/>
<path d="M209.535 78.7623L264.431 78.655L319.339 78.7623L264.431 78.8696L209.535 78.7623Z" fill="#C7C7C7"/>
<path d="M209.535 82.977L264.431 82.8698L319.339 82.977L264.431 83.0963L209.535 82.977Z" fill="#C7C7C7"/>
<path d="M209.535 87.2037L264.431 87.0845L319.339 87.2037L264.431 87.311L209.535 87.2037Z" fill="#C7C7C7"/>
<path d="M209.535 91.4184L264.431 91.2992L319.339 91.4184L264.431 91.5257L209.535 91.4184Z" fill="#C7C7C7"/>
<path d="M209.535 95.633L264.431 95.5258L319.339 95.633L264.431 95.7403L209.535 95.633Z" fill="#C7C7C7"/>
<path d="M209.535 99.8478L264.431 99.7405L319.339 99.8478L264.431 99.967L209.535 99.8478Z" fill="#C7C7C7"/>
<path d="M229.476 70.3324H221.144V104.774H229.476V70.3324Z" fill="#FF6B35"/>
<path d="M244.918 55.7649H236.586V104.774H244.918V55.7649Z" fill="white"/>
<path d="M260.372 49.152H252.04V104.774H260.372V49.152Z" fill="#FF6B35"/>
<path d="M275.813 57.7714H267.481V104.763H275.813V57.7714Z" fill="white"/>
<path d="M291.267 60.3358H282.935V104.763H291.267V60.3358Z" fill="#FF6B35"/>
<path d="M306.708 85.5173H298.376V104.774H306.708V85.5173Z" fill="white"/>
<path d="M212.51 37.8494L212.699 54.5777L212.825 71.3059C212.909 82.4661 212.951 93.6183 212.951 104.763L212.51 104.359H239.22H265.918L292.628 104.501L319.339 104.739L292.628 104.988L265.918 105.131H239.22H212.51H212.069V104.715C212.069 93.5629 212.111 82.4106 212.195 71.2585L212.321 54.5302L212.51 37.8494Z" fill="#C7C7C7"/>
<path d="M229.476 108.301H221.144V109.013H229.476V108.301Z" fill="#C7C7C7"/>
<path d="M244.918 108.301H236.586V109.013H244.918V108.301Z" fill="#C7C7C7"/>
<path d="M260.372 108.301H252.04V109.013H260.372V108.301Z" fill="#C7C7C7"/>
<path d="M275.813 108.301H267.481V109.013H275.813V108.301Z" fill="#C7C7C7"/>
<path d="M291.267 108.301H282.935V109.013H291.267V108.301Z" fill="#C7C7C7"/>
<path d="M306.708 108.301H298.376V109.013H306.708V108.301Z" fill="#C7C7C7"/>
<path d="M164.875 196.786H131.812V199.457H164.875V196.786Z" fill="#C7C7C7"/>
<path d="M176.484 202.366H131.812V205.037H176.484V202.366Z" fill="#C7C7C7"/>
<path d="M155.522 207.958H131.812V210.629H155.522V207.958Z" fill="#C7C7C7"/>
<path d="M124.438 196.786H117.543V203.28H124.438V196.786Z" fill="#FF6B35"/>
<path d="M378.381 40.6869H345.318V43.3582H378.381V40.6869Z" fill="#C7C7C7"/>
<path d="M389.99 46.267H345.318V48.9383H389.99V46.267Z" fill="#C7C7C7"/>
<path d="M369.028 51.8589H345.318V54.5302H369.028V51.8589Z" fill="#C7C7C7"/>
<path d="M337.944 40.6869H331.049V47.1811H337.944V40.6869Z" fill="#FF6B35"/>
<path d="M384.621 62.3066H345.318V64.9779H384.621V62.3066Z" fill="#C7C7C7"/>
<path d="M376.402 67.8867H345.318V70.558H376.402V67.8867Z" fill="#C7C7C7"/>
<path d="M389.99 73.4786H345.318V76.1499H389.99V73.4786Z" fill="#C7C7C7"/>
<path d="M337.944 62.3066H331.049V68.8009H337.944V62.3066Z" fill="white"/>
<path d="M265.704 128.187H117.518V189.235H265.704V128.187Z" fill="#DBDBDB"/>
<path d="M257.838 135.892H125.396V141.163H257.838V135.892Z" fill="white"/>
<path d="M193.111 135.892H125.396V141.163H193.111V135.892Z" fill="#FF6B35"/>
<path d="M257.838 145.984H125.396V151.255H257.838V145.984Z" fill="white"/>
<path d="M246.884 145.984H125.396V151.255H246.884V145.984Z" fill="#FF6B35"/>
<path d="M257.838 156.075H125.396V161.347H257.838V156.075Z" fill="white"/>
<path d="M164.585 156.075H125.396V161.347H164.585V156.075Z" fill="#FF6B35"/>
<path d="M257.838 166.167H125.396V171.438H257.838V166.167Z" fill="white"/>
<path d="M229.476 166.167H125.396V171.438H229.476V166.167Z" fill="#FF6B35"/>
<path d="M257.838 176.259H125.396V181.53H257.838V176.259Z" fill="white"/>
<path d="M201.922 176.259H125.396V181.53H201.922V176.259Z" fill="#FF6B35"/>
<path d="M361.73 161.453C361.269 167.294 359.286 172.938 355.956 177.885L346.25 172.602C348.57 169.249 350.021 165.431 350.486 161.453H361.73Z" fill="#455A64"/>
<path d="M361.805 158.699C361.805 159.091 361.805 159.471 361.805 159.886H350.587C350.587 159.506 350.587 159.127 350.587 158.699C350.59 154.486 349.479 150.339 347.356 146.631C345.232 142.923 342.162 139.771 338.423 137.459L344.044 128.306C349.484 131.551 353.965 136.04 357.07 141.353C360.175 146.667 361.804 152.634 361.805 158.699Z" fill="#A6A6A6"/>
<path d="M342.633 127.475L337.036 136.628C333.192 134.553 328.861 133.406 324.431 133.292V122.738C330.825 122.847 337.086 124.477 342.633 127.475Z" fill="#455A64"/>
<path d="M322.792 122.738V133.292C318.237 133.425 313.792 134.643 309.872 136.834C305.953 139.024 302.687 142.115 300.38 145.818L290.662 140.546C293.953 135.237 298.635 130.812 304.261 127.694C309.886 124.576 316.267 122.87 322.792 122.738Z" fill="#FF6B35"/>
<path d="M299.561 147.218C297.708 150.641 296.716 154.419 296.662 158.26H285.456C285.506 152.566 287.01 146.966 289.842 141.935L299.561 147.218Z" fill="#A6A6A6"/>
<path d="M308.599 179.82L302.99 188.974C297.776 185.827 293.455 181.529 290.402 176.455C287.349 171.38 285.656 165.681 285.469 159.851H296.674C296.861 163.827 298.037 167.706 300.109 171.175C302.18 174.644 305.088 177.605 308.599 179.82Z" fill="#455A64"/>
<path d="M355.011 179.215C349.537 186.646 341.292 191.863 331.917 193.826C322.543 195.788 312.728 194.353 304.427 189.805L310.036 180.663C315.77 183.828 322.542 184.888 329.055 183.642C335.567 182.395 341.363 178.929 345.33 173.908L355.011 179.215Z" fill="#DBDBDB"/>
<path d="M343.616 159.851C343.613 163.125 342.587 166.327 340.666 169.056C338.745 171.786 336.014 173.923 332.814 175.202L325.893 159.851H343.616Z" fill="#FF6B35"/>
<path d="M323.649 158.711L330.557 174.062C330.015 174.264 329.473 174.466 328.931 174.62C327.229 175.116 325.457 175.368 323.675 175.368C321.893 175.366 320.121 175.113 318.418 174.62C314.788 173.59 311.606 171.486 309.344 168.619C307.082 165.753 305.861 162.276 305.861 158.705C305.861 155.134 307.082 151.657 309.344 148.791C311.606 145.924 314.788 143.82 318.418 142.79C321.843 141.793 325.507 141.793 328.931 142.79C331.672 143.587 334.165 145.002 336.194 146.912C338.224 148.821 339.728 151.168 340.578 153.748C341.1 155.353 341.368 157.021 341.372 158.699L323.649 158.711Z" fill="#FF6B35"/>
<path d="M323.65 158.711L330.557 174.062C330.015 174.264 329.473 174.466 328.931 174.62C327.229 175.116 325.457 175.368 323.675 175.368C319.899 175.374 316.22 174.239 313.18 172.13C310.14 170.02 307.898 167.048 306.784 163.65C305.709 160.427 305.709 156.971 306.784 153.748C307.9 150.352 310.143 147.383 313.183 145.276C316.223 143.169 319.9 142.035 323.675 142.042C328.355 142.042 332.844 143.793 336.153 146.91C339.463 150.027 341.322 154.255 341.322 158.663L323.65 158.711Z" fill="#DBDBDB"/>
<path d="M323.649 158.711L312.116 171.343C309.891 169.519 308.186 167.2 307.159 164.595C306.131 161.991 305.813 159.186 306.233 156.436C306.653 153.686 307.799 151.08 309.564 148.854C311.33 146.629 313.66 144.856 316.341 143.697C319.022 142.539 321.968 142.032 324.911 142.222C327.854 142.413 330.699 143.295 333.186 144.788C335.673 146.282 337.724 148.339 339.149 150.771C340.575 153.203 341.33 155.933 341.347 158.711H323.649Z" fill="#A6A6A6"/>
<path d="M374.335 198.46H349.666L319.112 169.681L319.565 169.266L349.931 197.866H374.335V198.46Z" fill="#263238"/>
<path d="M321.065 167.853H317.624V171.094H321.065V167.853Z" fill="#263238"/>
<path d="M374.335 176.199H346.54L333.343 163.769L333.784 163.341L346.792 175.606H374.335V176.199Z" fill="#263238"/>
<path d="M335.271 161.94H331.843V165.181H335.271V161.94Z" fill="#263238"/>
<path d="M374.335 154.164H332.297V154.757H374.335V154.164Z" fill="#263238"/>
<path d="M333.57 152.846H330.128V156.087H333.57V152.846Z" fill="#263238"/>
<path d="M418.226 151.219H385.162V153.891H418.226V151.219Z" fill="#DBDBDB"/>
<path d="M429.835 156.8H385.162V159.471H429.835V156.8Z" fill="#DBDBDB"/>
<path d="M408.873 162.391H385.162V165.063H408.873V162.391Z" fill="#DBDBDB"/>
<path d="M377.789 151.219H370.894V157.714H377.789V151.219Z" fill="#FF6B35"/>
<path d="M424.465 172.839H385.162V175.511H424.465V172.839Z" fill="#DBDBDB"/>
<path d="M416.247 178.419H385.162V181.09H416.247V178.419Z" fill="#DBDBDB"/>
<path d="M429.835 184.011H385.162V186.682H429.835V184.011Z" fill="#DBDBDB"/>
<path d="M377.789 172.839H370.894V179.333H377.789V172.839Z" fill="#A6A6A6"/>
<path d="M424.465 194.459H385.162V197.13H424.465V194.459Z" fill="#DBDBDB"/>
<path d="M416.247 200.039H385.162V202.71H416.247V200.039Z" fill="#DBDBDB"/>
<path d="M429.835 205.631H385.162V208.302H429.835V205.631Z" fill="#DBDBDB"/>
<path d="M377.789 194.459H370.894V200.953H377.789V194.459Z" fill="#C7C7C7"/>
<path d="M279.771 334.898L282.216 348.753L298.843 433.273H301.515L289.427 348.753L287.649 334.898H279.771Z" fill="#DBDBDB"/>
<path d="M287.649 334.898H279.771L282.216 348.753H289.427L287.649 334.898Z" fill="#A6A6A6"/>
<path d="M227.586 433.273H230.271L246.884 348.753L249.342 334.898H241.464L239.674 348.753L227.586 433.273Z" fill="#DBDBDB"/>
<path d="M241.464 334.898L239.674 348.753H246.884L249.342 334.898H241.464Z" fill="#A6A6A6"/>
<path d="M177.758 433.273H180.43L197.044 348.753L199.502 334.898H191.623L189.834 348.753L177.758 433.273Z" fill="#DBDBDB"/>
<path d="M189.833 348.753H197.043L199.501 334.898H191.623L189.833 348.753Z" fill="#A6A6A6"/>
<path d="M181.993 341.416H303.746V329.33H258.178L242.851 245.392H186.644L181.993 341.416Z" fill="#DBDBDB"/>
<path d="M181.993 341.416H188.636L192.959 245.392H186.644L181.993 341.416Z" fill="#A6A6A6"/>
<path d="M505.819 363.178C505.819 363.178 505.453 403.996 505.453 404.02C505.453 411.832 505.252 418.682 504.811 422.208C504.797 423.033 504.585 423.845 504.193 424.583C501.672 426.15 435.47 427.765 433.138 427.088C430.806 426.411 432.671 420.107 435.192 418.112C437.713 416.118 462.785 404.815 462.785 404.815L463.567 364.01L505.819 363.178Z" fill="#AD6359"/>
<path d="M505.504 395.65L505.428 403.96C505.428 411.772 505.227 418.623 504.785 422.149C504.672 422.959 504.465 423.756 504.168 424.523C501.647 426.091 435.445 427.705 433.113 427.029C430.781 426.352 432.646 420.048 435.167 418.053C437.688 416.058 462.76 404.756 462.76 404.756V396.243L505.504 395.65Z" fill="white"/>
<path d="M458.676 404.981C463.088 404.293 468.445 405.041 471.747 408.056C471.873 408.175 471.747 408.341 471.546 408.294C467.379 406.932 463.068 405.996 458.688 405.504C458.615 405.505 458.544 405.479 458.491 405.432C458.437 405.384 458.407 405.318 458.405 405.249C458.403 405.179 458.431 405.112 458.482 405.062C458.532 405.012 458.602 404.983 458.676 404.981Z" fill="#263238"/>
<path d="M455.462 406.715C459.873 406.026 465.243 406.774 468.533 409.79C468.659 409.909 468.533 410.075 468.331 410.027C464.163 408.671 459.853 407.735 455.474 407.237C455.438 407.238 455.401 407.232 455.368 407.22C455.334 407.207 455.303 407.189 455.276 407.165C455.25 407.141 455.229 407.113 455.214 407.081C455.199 407.05 455.191 407.016 455.191 406.982C455.19 406.948 455.196 406.914 455.209 406.882C455.222 406.85 455.242 406.82 455.267 406.796C455.292 406.771 455.323 406.751 455.356 406.737C455.389 406.723 455.425 406.716 455.462 406.715Z" fill="#263238"/>
<path d="M452.247 408.448C456.659 407.771 462.029 408.508 465.319 411.523C465.445 411.642 465.319 411.808 465.13 411.772C460.959 410.404 456.644 409.461 452.26 408.959C452.198 408.947 452.141 408.916 452.1 408.871C452.059 408.825 452.036 408.768 452.035 408.708C452.033 408.649 452.054 408.59 452.092 408.543C452.131 408.496 452.186 408.462 452.247 408.448Z" fill="#263238"/>
<path d="M433.087 427.242C435.419 427.919 501.659 426.292 504.143 424.725C505.101 424.144 505.403 415.037 505.403 404.032V403.675L462.646 404.281V404.958C462.646 404.958 437.587 416.26 435.054 418.255C432.52 420.249 430.755 426.566 433.087 427.242Z" fill="#37474F"/>
<path d="M505.504 403.675V404.032C505.504 415.037 505.151 424.144 504.244 424.725C503.336 425.307 488.764 426.162 473.247 426.684C454.68 427.302 434.461 427.61 433.188 427.242C430.856 426.566 432.735 420.249 435.243 418.255C437.751 416.26 462.836 404.958 462.836 404.958V404.281L477.092 404.079L505.504 403.675Z" fill="#37474F"/>
<path d="M433.768 424.797C444.936 424.262 490 423.123 501.067 423.396C501.155 423.396 501.155 423.396 501.067 423.396C490.025 424.155 444.949 424.963 433.781 424.915C433.541 424.975 433.541 424.808 433.768 424.797Z" fill="#263238"/>
<path d="M476.953 404.079C475.907 410.823 474.319 420.76 473.172 426.637C454.604 427.254 434.386 427.563 433.113 427.195C430.781 426.518 432.659 420.202 435.167 418.207C437.676 416.213 462.76 404.91 462.76 404.91V404.233L476.953 404.079Z" fill="#263238"/>
<path d="M511.063 404.21L461.121 404.637C461.121 404.637 447.798 238.209 459.647 194.613H495.483C495.483 194.613 505.113 213.122 499.605 233.959L511.063 404.21Z" fill="#455A64"/>
<path d="M507.609 396.35C506.3 396.19 504.983 396.095 503.664 396.065C502.201 395.97 500.739 395.875 499.264 395.816C496.453 395.709 493.63 395.662 490.806 395.65C485.121 395.65 479.462 395.65 473.739 395.828C470.499 395.923 467.26 396.041 464.033 396.208C464.006 396.208 463.981 396.218 463.962 396.235C463.943 396.253 463.932 396.277 463.932 396.303C463.932 396.328 463.943 396.352 463.962 396.37C463.981 396.388 464.006 396.398 464.033 396.398C469.68 396.588 475.378 396.659 480.962 396.766C486.546 396.873 492.306 396.967 497.89 396.861C499.504 396.861 501.117 396.861 502.743 396.742C504.369 396.623 506.008 396.742 507.584 396.528C507.685 396.516 507.722 396.374 507.609 396.35Z" fill="#263238"/>
<path d="M464.827 355.77C464.26 343.613 463.857 331.455 463.491 319.286C462.785 294.971 462.6 270.641 462.936 246.294C463.125 232.641 463.504 218.988 463.945 205.346C463.945 205.192 463.693 205.204 463.68 205.346C462.306 229.768 461.789 254.249 461.764 278.718C461.739 303.187 462.268 327.395 463.541 351.698C464.26 365.339 465.142 379.004 466.504 392.587C466.504 392.705 466.705 392.705 466.705 392.587C466.125 380.322 465.382 368.046 464.827 355.77Z" fill="#263238"/>
<path d="M418.667 410.276C423.079 409.588 428.449 410.336 431.739 413.351C431.865 413.47 431.739 413.636 431.537 413.589C427.37 412.227 423.059 411.291 418.68 410.799C418.606 410.8 418.535 410.774 418.482 410.727C418.429 410.679 418.398 410.613 418.396 410.544C418.394 410.474 418.422 410.407 418.473 410.357C418.524 410.307 418.594 410.278 418.667 410.276Z" fill="#263238"/>
<path d="M415.453 412.01C419.865 411.333 425.234 412.069 428.524 415.085C428.65 415.204 428.524 415.37 428.335 415.322C424.162 413.963 419.848 413.024 415.465 412.52C415.403 412.509 415.347 412.478 415.306 412.433C415.265 412.387 415.242 412.33 415.24 412.27C415.239 412.21 415.259 412.152 415.298 412.105C415.336 412.057 415.391 412.024 415.453 412.01Z" fill="#263238"/>
<path d="M412.226 413.708C416.638 413.031 421.995 413.767 425.285 416.783C425.411 416.901 425.285 417.079 425.096 417.032C420.922 415.684 416.608 414.76 412.226 414.278C412.146 414.278 412.069 414.248 412.012 414.194C411.955 414.141 411.923 414.068 411.923 413.993C411.923 413.917 411.955 413.845 412.012 413.791C412.069 413.738 412.146 413.708 412.226 413.708Z" fill="#263238"/>
<path d="M393.079 432.537C395.411 433.214 461.651 431.588 464.134 430.02C465.092 429.439 465.394 420.332 465.394 409.327V408.959L422.638 409.552V410.229C422.638 410.229 397.579 421.532 395.045 423.526C392.511 425.521 390.797 431.861 393.079 432.537Z" fill="#37474F"/>
<path d="M393.759 430.092C404.928 429.569 449.991 428.418 461.058 428.691C461.147 428.691 461.147 428.75 461.058 428.75C450.016 429.51 404.94 430.317 393.772 430.27C393.533 430.329 393.533 430.104 393.759 430.092Z" fill="#263238"/>
<path d="M473.651 237.877C473.651 237.877 470.134 305.383 470.008 306.986C470.008 307.604 468.369 411.772 468.369 411.772L418.44 412.2C418.44 412.2 425.272 314.549 426.003 305.015C426.092 303.911 428.915 238.257 440.764 194.661H494.437C494.437 194.661 493.97 217.492 482.953 234.006C479.778 235.13 476.672 236.423 473.651 237.877Z" fill="#455A64"/>
<path d="M469.768 239.183C472.415 237.829 475.113 236.606 477.886 235.49C480.659 234.374 483.483 233.365 486.243 232.214C486.344 232.214 486.432 232.308 486.331 232.356C483.621 233.674 480.962 235.087 478.214 236.333C475.519 237.555 472.74 238.602 469.894 239.468C469.854 239.483 469.809 239.483 469.769 239.468C469.729 239.452 469.697 239.422 469.68 239.384C469.663 239.347 469.663 239.304 469.68 239.266C469.696 239.228 469.728 239.198 469.768 239.183Z" fill="#263238"/>
<path d="M473.449 237.805C473.449 237.71 473.625 237.734 473.613 237.805C471.81 250.461 469.378 400.874 468.962 404.471C468.962 404.528 468.938 404.582 468.895 404.622C468.853 404.662 468.795 404.685 468.735 404.685C468.674 404.685 468.617 404.662 468.574 404.622C468.532 404.582 468.508 404.528 468.508 404.471C468.419 398.107 468.735 279.893 473.449 237.805Z" fill="#263238"/>
<path d="M448.781 199.445C447.407 205.952 446.449 212.505 445.415 219.106C444.382 225.707 443.386 232.261 442.453 238.85C440.613 251.815 438.974 264.799 437.537 277.804C434.646 304.121 432.545 330.502 431.234 356.945C430.486 371.81 430.033 386.69 429.873 401.586C429.873 401.705 430.075 401.693 430.075 401.586C431.033 375.134 432.394 348.694 434.524 322.302C436.655 295.909 439.453 269.659 442.869 243.445C443.819 236.179 444.81 228.921 445.844 221.671C446.915 214.286 448.176 206.925 449.083 199.517C449.045 199.339 448.781 199.267 448.781 199.445Z" fill="#263238"/>
<path d="M465.659 405.278C464.35 405.113 463.033 405.014 461.714 404.981C460.251 404.886 458.789 404.791 457.327 404.732C454.503 404.625 451.693 404.578 448.869 404.578C443.171 404.578 437.524 404.578 431.789 404.756C428.562 404.851 425.323 404.969 422.083 405.136C421.957 405.136 421.97 405.314 422.083 405.314C427.718 405.504 433.365 405.587 439.012 405.682C444.659 405.777 450.293 405.884 455.928 405.789C457.554 405.789 459.167 405.789 460.781 405.658C462.394 405.527 464.058 405.658 465.634 405.444C465.735 405.397 465.772 405.29 465.659 405.278Z" fill="#263238"/>
<path d="M428.424 182.919C433.655 180.438 454.075 171.426 454.894 170.037C455.714 168.648 463.579 141.817 465.684 136.866C467.789 131.915 474.029 134.646 473.991 142.458C473.953 150.27 474.52 177.315 473.323 181.637C472.126 185.958 449.726 203.007 445.592 206.664C442.478 209.573 425.499 184.296 428.424 182.919Z" fill="#AD6359"/>
<path d="M449.764 203.043C446.9 205.737 443.852 208.252 440.638 210.57C438.029 212.303 430.352 217.088 428.033 214.559C426.457 212.838 430.554 209.537 433.491 207.127C435.016 205.868 436.567 203.411 435.646 202.509C434.058 200.93 430.176 204.278 427.781 206.889C423.129 211.935 417.482 220.127 412.932 218.501C411.218 217.883 412.075 215.473 413.663 212.873C410.764 216.245 407.487 219.296 405.545 218.679C405.039 218.523 404.618 218.189 404.368 217.746C404.119 217.303 404.062 216.786 404.209 216.304C403.818 216.658 403.324 216.895 402.79 216.983C402.255 217.072 401.705 217.009 401.209 216.803C399.583 216.008 399.533 214.072 400.188 211.852C399.954 211.903 399.711 211.901 399.479 211.845C399.246 211.789 399.031 211.682 398.852 211.532C394.995 208.706 403.894 194.127 407.953 191.728C416.08 187.142 424.839 183.63 433.983 181.292C440.487 183.513 449.777 203.031 449.764 203.043Z" fill="#AD6359"/>
<path d="M426.608 197.807C423.678 199.241 421.121 201.268 419.121 203.743C416.801 206.676 415.339 210.107 413.385 213.241C413.385 213.324 413.486 213.407 413.524 213.313C414.432 211.757 415.503 210.261 416.461 208.73C417.419 207.198 418.301 205.702 419.348 204.278C421.236 201.659 423.732 199.479 426.646 197.902C426.646 197.902 426.646 197.795 426.608 197.807Z" fill="#263238"/>
<path d="M422.31 193.414C419.137 195.293 416.18 197.478 413.486 199.932C410.625 202.699 408.911 206.272 407.184 209.727C406.15 211.809 405.171 213.906 404.247 216.019C404.247 216.114 404.335 216.186 404.385 216.091C406.112 212.529 407.94 208.967 409.881 205.584C411.667 202.368 414.109 199.516 417.066 197.19C418.768 195.872 420.558 194.661 422.36 193.474C422.386 193.45 422.31 193.391 422.31 193.414Z" fill="#263238"/>
<path d="M417.054 190.066C414.013 191.52 411.276 193.479 408.974 195.848C406.435 198.965 404.318 202.366 402.671 205.975C401.751 207.899 400.906 209.846 400.087 211.817C400.087 211.888 400.201 211.947 400.238 211.817C402.168 207.47 404.396 203.247 406.907 199.172C408.07 197.215 409.545 195.437 411.281 193.901C413.089 192.464 415.02 191.17 417.054 190.031C417.054 190.031 417.066 190.054 417.054 190.066Z" fill="#263238"/>
<path d="M431.966 178.692L457.314 202.71C457.314 202.71 472.668 188.736 474.319 181.684C475.97 174.632 476.021 147.503 474.319 139.335C472.617 131.167 467.02 128.484 463.264 139.739C459.508 150.994 454.945 168.625 454.592 169.278C454.239 169.93 431.966 178.692 431.966 178.692Z" fill="#FF6B35"/>
<path d="M461.726 195.254C460.136 193.558 458.453 191.942 456.684 190.411C454.97 188.82 453.205 187.3 451.428 185.768C447.873 182.717 444.218 179.749 440.474 176.9C440.361 176.805 440.184 176.9 440.298 177.054C443.663 180.343 447.155 183.548 450.709 186.647C452.474 188.179 454.251 189.698 456.079 191.17C457.83 192.682 459.664 194.104 461.575 195.433C461.701 195.468 461.815 195.314 461.726 195.254Z" fill="#263238"/>
<path d="M458.726 144.31C461.625 144.523 467.827 139.561 470.323 135.382C470.241 132.999 470.03 130.621 469.693 128.258C469.478 125.979 469.302 123.438 469.327 121.135C469.327 120.648 467.588 121.515 467.588 121.515L464.386 122.227L453.772 124.601C454.636 127.523 455.114 130.534 455.197 133.565C455.186 133.884 455.148 134.202 455.083 134.515C455.083 134.515 455.083 134.61 455.083 134.681C454.73 136.438 454.201 143.977 458.726 144.31Z" fill="#AD6359"/>
<path d="M455.083 134.468C455.083 134.468 455.083 134.562 455.083 134.634C455.614 134.699 456.149 134.727 456.684 134.717C467.134 134.574 468.546 122.061 468.546 122.061L464.411 122.203L453.798 124.578C454.661 127.499 455.139 130.51 455.222 133.541C455.202 133.853 455.155 134.163 455.083 134.468Z" fill="#263238"/>
<path d="M469.756 101.343C472.05 106.318 471.016 121.527 467.474 125.254C462.432 130.668 453.243 132.117 448.125 126.192C443.171 120.458 444.961 100.679 448.945 97.1999C454.806 92.071 466.428 93.9943 469.756 101.343Z" fill="#AD6359"/>
<path d="M445.768 105.511C445.768 105.511 444.508 111.209 443.247 116.873L445.289 116.623L444.823 119.188C445.555 119.343 446.314 119.352 447.051 119.213C447.787 119.074 448.484 118.79 449.096 118.38L445.768 105.511Z" fill="#AD6359"/>
<path d="M447.961 111.696C447.961 111.696 448.05 111.696 448.037 111.791C447.886 112.812 447.898 113.999 448.844 114.439C447.646 114.213 447.646 112.634 447.961 111.696Z" fill="#263238"/>
<path d="M449.058 110.723C450.81 110.723 450.571 114.082 448.945 114.035C447.319 113.987 447.584 110.687 449.058 110.723Z" fill="#263238"/>
<path d="M450.546 109.535C450.079 109.393 449.663 109.179 449.285 109.001C448.784 108.872 448.341 108.593 448.024 108.206C447.953 108.067 447.932 107.91 447.967 107.759C448.001 107.609 448.088 107.473 448.214 107.375C448.489 107.206 448.808 107.11 449.136 107.098C449.464 107.085 449.79 107.156 450.079 107.303C450.709 107.514 451.235 107.937 451.554 108.491C451.632 108.627 451.664 108.783 451.644 108.937C451.624 109.091 451.554 109.235 451.443 109.35C451.332 109.465 451.187 109.544 451.026 109.577C450.865 109.611 450.697 109.596 450.546 109.535Z" fill="#263238"/>
<path d="M448.945 121.325C448.667 121.55 448.377 121.859 447.987 121.871C447.581 121.833 447.186 121.72 446.827 121.538C446.967 121.752 447.168 121.924 447.406 122.038C447.644 122.151 447.91 122.2 448.176 122.18C448.4 122.14 448.607 122.039 448.771 121.889C448.935 121.739 449.048 121.547 449.096 121.337L448.945 121.325Z" fill="#263238"/>
<path d="M449.398 118.19C448.942 118.693 448.348 119.069 447.682 119.278C447.016 119.487 446.302 119.522 445.617 119.378C445.541 119.378 445.503 119.283 445.529 119.283C446.888 119.258 448.207 118.844 449.31 118.095C449.436 118.084 449.474 118.084 449.398 118.19Z" fill="#263238"/>
<path d="M446.978 100.643C443.323 99.6099 440.777 92.0116 442.05 89.1978C443.323 86.384 446.323 90.8243 446.323 90.8243C446.323 90.8243 446.625 88.1649 447.911 87.8681C449.197 87.5713 451.592 91.228 451.592 91.228C451.592 91.228 463.869 91.9641 466.491 92.8545C469.113 93.745 469.907 97.0692 469.907 97.0692C471 97.526 471.974 98.2027 472.761 99.0519C473.547 99.901 474.126 100.902 474.457 101.984C475.718 105.831 471.659 120.28 469.125 122.239C466.592 124.198 459.571 113.204 459.571 113.204C459.571 113.204 457.68 113.441 456.898 109.88C455.751 104.596 455.436 101.236 452.651 100.702C450.767 100.504 448.866 100.484 446.978 100.643Z" fill="#263238"/>
<path d="M458.991 113.833C458.991 113.833 462.092 108.704 464.537 109.702C466.983 110.699 464.978 117.917 462.344 119.116C462.018 119.292 461.658 119.404 461.285 119.445C460.912 119.487 460.534 119.457 460.174 119.357C459.813 119.257 459.478 119.089 459.188 118.865C458.898 118.64 458.66 118.362 458.487 118.048L458.991 113.833Z" fill="#AD6359"/>
<path d="M463.907 111.755C463.907 111.755 463.97 111.755 463.907 111.827C463.069 112.315 462.351 112.964 461.797 113.731C461.243 114.498 460.867 115.366 460.693 116.279C460.785 116.087 460.92 115.917 461.089 115.78C461.258 115.642 461.457 115.542 461.672 115.484C461.886 115.426 462.112 115.413 462.332 115.446C462.553 115.479 462.763 115.556 462.949 115.673V115.78C462.604 115.707 462.243 115.737 461.917 115.867C461.592 115.997 461.318 116.22 461.134 116.504C460.821 116.978 460.567 117.484 460.377 118.012C460.302 118.19 459.987 118.131 460.024 117.929C459.735 115.602 461.31 112.219 463.907 111.755Z" fill="#263238"/>
<path d="M458.046 149.308C448.39 166.808 431.31 186.469 414.659 193.806C404.512 198.258 397.012 195.86 393.999 192.31C389.625 187.217 398.146 154.484 404.713 144.618C406.856 141.425 438.596 149.807 436.466 153.309C434.335 156.811 444.029 146.328 454.504 138.457C465.256 130.324 463.907 138.742 458.046 149.308Z" fill="#AD6359"/>
<path d="M414.873 127.166C418.654 124.506 422.852 121.158 427.642 119.864C432.432 118.57 438.318 123.355 438.873 125.041C439.428 126.727 441.079 137.851 436.352 139.228C431.625 140.605 431.814 131.642 431.31 130.763C430.806 129.885 430.251 128.745 429.381 129.089C428.512 129.434 415.062 140.962 415.062 140.962L414.873 127.166Z" fill="#AD6359"/>
<path d="M415.377 127.7C415.642 127.629 426.86 119.188 431.663 117.894C436.466 116.599 442.34 121.384 442.894 123.082C443.449 124.78 445.1 135.88 440.373 137.258C435.646 138.635 435.835 129.671 435.331 128.793C434.827 127.914 434.285 126.774 433.415 127.13C432.545 127.487 419.096 139.003 419.096 139.003L415.377 127.7Z" fill="#AD6359"/>
<path d="M438.533 137.163C437.772 136.518 437.199 135.701 436.869 134.788C436.455 133.858 436.2 132.872 436.112 131.867C436.113 130.985 436.037 130.103 435.886 129.232C435.606 128.403 435.112 127.652 434.449 127.047C433.869 126.525 433.188 126.94 432.709 127.32C431.922 127.89 431.177 128.508 430.478 129.172L428.184 131.262C427.369 131.958 426.602 132.704 425.89 133.494C425.89 133.553 425.89 133.648 425.991 133.601C426.716 133.062 427.41 132.488 428.07 131.879C428.843 131.214 429.625 130.561 430.415 129.92C431.146 129.315 431.852 128.674 432.596 128.08C432.86 127.866 433.365 127.392 433.743 127.356C434.121 127.32 434.587 128.128 434.751 128.377C435.217 129.123 435.436 129.983 435.381 130.846C435.387 131.721 435.488 132.592 435.684 133.446C435.859 134.253 436.183 135.025 436.642 135.726C437.163 136.322 437.755 136.86 438.407 137.329C438.495 137.364 438.621 137.222 438.533 137.163Z" fill="#263238"/>
<path d="M404.562 144.963C404.562 144.963 410.247 132.034 415.629 125.658C420.381 120.007 426.495 115.495 431.638 113.952C436.781 112.409 449.537 124.993 445.302 127.012C440.84 129.101 434.89 122.69 433.05 124.281C430.995 126.062 428.587 129.03 429.558 131.523C430.529 134.016 434.6 137.863 438.949 136.462C443.298 135.061 442.844 129.481 446.701 127.629C450.558 125.777 451.554 132.247 450.004 137.127C448.267 141.93 445.12 146.17 440.928 149.356C437.537 151.813 427.226 160.041 427.226 160.041L404.562 144.963Z" fill="#AD6359"/>
<path d="M443.625 127.415C441.945 127.477 440.277 127.112 438.798 126.359C437.372 125.615 435.899 124.957 434.386 124.388C434.238 124.336 434.079 124.317 433.922 124.331C433.765 124.346 433.613 124.393 433.478 124.471C433.168 124.672 432.881 124.903 432.621 125.159C432.066 125.704 431.56 126.292 431.108 126.917C430.251 128.104 429.419 129.612 429.848 130.906C430.321 132.31 431.193 133.567 432.369 134.539C433.516 135.56 434.976 136.212 436.541 136.403C437.321 136.446 438.102 136.358 438.848 136.141C439.599 135.879 440.285 135.475 440.865 134.954C442.033 133.87 442.933 132.557 443.499 131.108C443.091 132.649 442.3 134.077 441.193 135.275C440.588 135.861 439.857 136.318 439.05 136.616C438.245 136.905 437.389 137.046 436.529 137.032C434.779 136.904 433.126 136.222 431.84 135.097C430.489 134.045 429.476 132.659 428.915 131.096C428.68 130.246 428.756 129.347 429.129 128.543C429.456 127.785 429.879 127.068 430.39 126.406C430.88 125.75 431.428 125.135 432.029 124.566C432.348 124.268 432.698 124.001 433.075 123.77C433.304 123.662 433.553 123.598 433.808 123.582C434.064 123.566 434.32 123.597 434.562 123.675C435.364 123.961 436.133 124.323 436.856 124.756L438.999 125.943C440.385 126.792 441.976 127.299 443.625 127.415Z" fill="#263238"/>
<path d="M400.717 146.114L437.159 152.514L436.655 153.594C436.655 153.594 451.592 139.003 458.083 134.408C465.647 129.042 465.268 136.676 461.701 144.535C458.134 152.395 436.491 187.965 416.486 197.653C409.503 201.024 394.503 196.62 392.839 191.61C389.814 182.634 400.717 146.114 400.717 146.114Z" fill="#FF6B35"/>
<path d="M436.743 153.404C435.089 154.606 433.518 155.907 432.041 157.298C430.1 159.02 428.197 160.765 426.293 162.522C422.487 166.013 418.705 169.547 414.949 173.124C414.482 173.575 414.029 174.038 413.575 174.49C412.781 174.822 412.024 175.214 411.255 175.582C410.486 175.95 409.415 176.484 408.47 176.912C408.452 176.925 408.439 176.944 408.434 176.965C408.429 176.987 408.432 177.009 408.442 177.028C408.453 177.048 408.47 177.063 408.491 177.072C408.512 177.081 408.536 177.083 408.558 177.078C409.491 176.698 410.436 176.33 411.344 175.891C411.865 175.653 412.381 175.404 412.894 175.143C411.482 176.52 410.071 177.897 408.684 179.298C408.608 179.381 408.684 179.5 408.835 179.429C416.638 172.768 424.201 165.823 431.524 158.687C432.571 157.666 435.898 154.639 436.806 153.511C436.907 153.463 436.831 153.345 436.743 153.404Z" fill="#263238"/>
<path d="M430.629 158.117C428.333 157.455 426.002 156.904 423.646 156.467C421.302 155.957 418.944 155.517 416.587 155.102C411.86 154.247 407.096 153.523 402.331 152.929C402.167 152.929 402.104 153.119 402.331 153.155C407.02 154.342 411.772 155.304 416.524 156.194C418.881 156.633 421.239 157.061 423.621 157.381C425.951 157.808 428.303 158.117 430.667 158.307C430.743 158.343 430.743 158.153 430.629 158.117Z" fill="#263238"/>
<path d="M457.932 151.54C452.449 159.661 446.865 167.71 440.84 175.487C439.075 177.755 437.36 180.058 435.571 182.325C435.571 182.42 435.634 182.551 435.722 182.456C442.278 174.998 448.24 167.093 453.558 158.806C455.109 156.432 456.609 154.057 458.008 151.588L457.932 151.54Z" fill="#263238"/>
<path d="M503.512 215.568C503.349 215.734 434.588 216.981 433.945 216.328C433.05 215.402 444.293 150.472 455.222 136.32C457.957 132.758 467.714 130.383 471.773 133.945C483.546 144.357 486.016 153.095 489.08 160.243C492.065 167.961 494.565 175.838 496.567 183.833C500.676 199.101 504.067 214.951 503.512 215.568Z" fill="#FF6B35"/>
<path d="M450.155 147.504C448.138 152.454 446.373 157.512 444.747 162.593C443.121 167.675 441.672 172.709 440.6 177.873C440.298 179.334 440.008 180.794 439.743 182.254C439.478 183.715 439.264 185.294 438.861 186.778C438.861 186.896 439.024 186.932 439.05 186.778C439.541 184.186 440.198 181.625 441.016 179.108C441.735 176.52 442.491 173.943 443.184 171.343C444.52 166.238 445.995 161.169 447.558 156.123C448.466 153.238 449.424 150.377 450.369 147.504C450.407 147.42 450.205 147.385 450.155 147.504Z" fill="#263238"/>
<path d="M137.232 353.775L139.892 368.853L157.98 460.829H160.892L147.745 368.853L145.803 353.775H137.232Z" fill="#DBDBDB"/>
<path d="M145.803 353.775H137.232L139.892 368.853H147.745L145.803 353.775Z" fill="#A6A6A6"/>
<path d="M80.4458 460.829H83.3576L101.446 368.853L104.106 353.775H95.5342L93.593 368.853L80.4458 460.829Z" fill="#DBDBDB"/>
<path d="M95.5342 353.775L93.593 368.853H101.446L104.106 353.775H95.5342Z" fill="#A6A6A6"/>
<path d="M26.2185 460.829H29.1303L47.2061 368.853L49.8784 353.775H41.3069L39.3657 368.853L26.2185 460.829Z" fill="#DBDBDB"/>
<path d="M39.3657 368.853H47.2061L49.8784 353.775H41.3069L39.3657 368.853Z" fill="#A6A6A6"/>
<path d="M30.832 360.863H163.325V347.709H113.723L97.0594 256.374H35.8867L30.832 360.863Z" fill="#DBDBDB"/>
<path d="M30.832 360.863H38.0548L42.7691 256.374H35.8867L30.832 360.863Z" fill="#A6A6A6"/>
<path d="M304.994 450.239C302.536 451.035 232.3 451.26 229.615 449.669C228.582 449.076 227.951 439.435 227.548 427.776L191.359 387.707L245.208 387.422L272.838 427.503C272.838 427.503 299.763 438.747 302.523 440.789C305.284 442.831 307.439 449.467 304.994 450.239Z" fill="#DD6A57"/>
<path d="M304.994 450.239C302.536 451.035 232.3 451.26 229.615 449.669C228.695 449.147 228.103 441.525 227.699 431.683C234.443 432.787 291.355 442 294.053 440.587C296.75 439.174 288.179 434.081 288.179 434.081H288.28C294.834 436.93 301.25 439.839 302.523 440.777C305.246 442.819 307.439 449.468 304.994 450.239Z" fill="#263238"/>
<path d="M267.494 438.77C267.494 438.77 274.716 430.875 288.179 434.081L267.494 438.77Z" fill="#263238"/>
<path d="M277.527 427.052L250.161 429.581L223.149 432.086C223.149 432.086 168.946 359.51 165.657 356.34C158.093 349.216 97.2232 337.653 80.7987 322.278C63.4036 306.001 70.9919 285.414 70.9919 285.414H116.37C116.37 285.414 122.118 299.138 124.539 299.851C150.745 307.52 185.648 317.161 196.993 326.587C217.338 343.529 277.527 427.052 277.527 427.052Z" fill="#263238"/>
<path d="M269.006 419.193C261.304 419.869 263.498 419.573 255.821 420.38C252.04 420.748 227.346 423.229 223.905 424.167C223.817 424.167 223.905 424.31 223.905 424.31C227.485 424.476 252.14 421.591 255.897 421.152C263.573 420.237 261.355 420.427 269.019 419.442C269.054 419.44 269.087 419.426 269.11 419.401C269.134 419.377 269.146 419.344 269.145 419.311C269.143 419.278 269.128 419.247 269.102 419.225C269.076 419.203 269.041 419.191 269.006 419.193Z" fill="#455A64"/>
<path d="M224.598 419.798C215.699 408.341 206.598 396.504 197.497 385.178L183.846 368.189C181.56 365.347 179.275 362.518 176.989 359.7C175.066 357.158 172.892 354.793 170.497 352.636C168.003 350.667 165.207 349.066 162.203 347.887C159.039 346.557 155.787 345.417 152.51 344.325C145.703 342.117 138.77 340.324 131.875 338.389C119.081 334.827 106.123 330.921 95.1058 323.655C85.1982 317.113 76.9292 307.402 74.572 296.016C74.2804 294.571 74.1201 293.105 74.093 291.635C74.093 291.61 74.0824 291.586 74.0635 291.568C74.0446 291.55 74.0189 291.54 73.9922 291.54C73.9655 291.54 73.9398 291.55 73.9209 291.568C73.902 291.586 73.8914 291.61 73.8914 291.635C74.1391 297.165 75.6618 302.577 78.3536 307.497C81.1786 312.533 84.9694 317.034 89.5343 320.77C99.3663 328.974 111.808 333.711 124.186 337.391C131.043 339.422 138.052 341.179 144.871 343.15C148.363 344.159 151.816 345.215 155.232 346.403C158.508 347.47 161.697 348.76 164.774 350.261C167.769 351.788 170.436 353.825 172.64 356.269C174.972 358.845 177.039 361.647 179.195 364.354C183.733 370.029 188.283 375.696 192.846 381.355C202.01 392.765 211.111 404.233 220.413 415.548C221.573 416.961 222.745 418.35 223.905 419.751C224.22 420.202 224.977 420.285 224.598 419.798Z" fill="#455A64"/>
<path d="M189.191 463.976C186.733 464.723 116.497 463.869 113.85 462.23C112.829 461.637 123.581 397.205 123.581 397.205L170.573 397.644L157.451 440.753C157.451 440.753 184.174 452.4 186.884 454.489C189.594 456.579 191.636 463.239 189.191 463.976Z" fill="#DD6A57"/>
<path d="M189.19 463.976C186.732 464.723 116.497 463.869 113.85 462.23C113.522 462.04 114.417 455.178 115.791 445.977C118.652 426.767 123.568 397.205 123.568 397.205L170.56 397.644L157.438 440.753C157.438 440.753 165.745 444.374 173.56 447.936C179.762 450.761 185.648 453.551 186.846 454.478C189.581 456.567 191.636 463.239 189.19 463.976Z" fill="#DD6A57"/>
<path d="M189.19 463.975C186.732 464.723 116.497 463.869 113.85 462.23C113.522 462.04 114.417 455.178 115.791 445.977C122.724 447.093 139.287 449.74 153.808 451.818L155.497 452.055C167.85 453.789 178.337 455.035 179.447 454.43C182.232 452.958 174.039 448.185 173.585 447.936C179.787 450.761 185.674 453.551 186.871 454.477C189.581 456.567 191.636 463.239 189.19 463.975Z" fill="#263238"/>
<path d="M152.913 452.637C152.913 452.637 160.136 444.73 173.585 447.888L152.913 452.637Z" fill="#263238"/>
<path d="M160.652 440.171L111.366 439.946C111.366 439.946 134.446 357.693 133.337 351.484C132.82 348.611 78.0636 352.933 58.3996 333.509C41.4835 316.793 57.0634 285.485 57.0634 285.485L109.803 284.298C109.803 284.298 104.938 297.737 101.623 306.072C101.623 306.072 173.938 310.88 182.056 325.816C190.716 341.772 160.652 440.171 160.652 440.171Z" fill="#263238"/>
<path d="M108.442 287.598C107.912 290.234 107.459 292.882 106.816 295.494C106.513 296.681 106.236 297.975 105.845 299.186C105.725 299.719 105.413 300.197 104.963 300.539C104.43 300.821 103.82 300.949 103.211 300.907C102.93 300.945 102.645 300.922 102.375 300.84C102.106 300.758 101.86 300.618 101.657 300.433C101.453 300.247 101.298 300.02 101.203 299.769C101.107 299.518 101.074 299.249 101.106 298.984C101.106 296.538 102.845 288.204 102.946 287.515C102.946 287.385 102.492 287.325 102.454 287.515C101.194 292.751 99.4669 299.388 100.526 300.706C101.099 301.364 101.903 301.808 102.793 301.956C103.684 302.104 104.601 301.947 105.379 301.513C106.049 301 106.498 300.274 106.639 299.471C106.954 298.284 107.143 297.096 107.37 295.992C107.9 293.238 108.467 290.495 108.845 287.681C108.832 287.644 108.809 287.611 108.778 287.584C108.747 287.558 108.709 287.54 108.669 287.531C108.628 287.523 108.586 287.525 108.546 287.536C108.506 287.548 108.47 287.57 108.442 287.598Z" fill="#455A64"/>
<path d="M102.391 301.869C102.301 302.201 102.229 302.538 102.177 302.878C102.102 303.222 102.026 303.555 101.938 303.887C101.849 304.22 101.774 304.564 101.673 304.908C101.572 305.253 101.522 305.573 101.446 305.918C101.444 305.946 101.452 305.974 101.469 305.998C101.486 306.022 101.51 306.04 101.539 306.049C101.567 306.059 101.598 306.059 101.627 306.05C101.656 306.041 101.681 306.024 101.698 306.001C101.863 305.692 102.011 305.375 102.139 305.051C102.253 304.707 102.366 304.374 102.467 304.03C102.568 303.685 102.644 303.353 102.719 303.009C102.827 302.665 102.89 302.31 102.908 301.952C102.908 301.715 102.48 301.62 102.391 301.869Z" fill="#455A64"/>
<path d="M141.997 349.24C140.988 346.676 138.102 346.32 135.568 346.165C131.938 345.944 128.312 345.655 124.69 345.299C117.455 344.586 110.253 343.605 103.085 342.354C96.2687 341.295 89.532 339.824 82.9166 337.95C76.8056 336.282 71.1594 333.367 66.3786 329.413C61.8993 325.694 58.9427 320.616 58.0214 315.059C57.683 311.673 57.7803 308.261 58.3113 304.897C58.7273 301.513 59.2441 298.153 59.9626 294.817C60.3282 293.167 60.7315 291.54 61.2231 289.925C61.216 289.907 61.2031 289.892 61.1862 289.881C61.1693 289.869 61.1492 289.864 61.1286 289.864C61.108 289.864 61.0879 289.869 61.071 289.881C61.0541 289.892 61.0412 289.907 61.034 289.925C59.2085 296.42 57.9438 303.042 57.2525 309.729C56.939 312.787 57.1993 315.873 58.0214 318.847C58.8426 321.407 60.1215 323.816 61.803 325.97C69.2652 335.706 82.1098 339.232 93.9839 341.642C101.093 343.09 108.236 344.278 115.413 345.204C118.904 345.643 122.408 346.035 125.913 346.391C129.417 346.747 133.009 346.89 136.551 347.186C137.308 347.165 138.06 347.292 138.761 347.56C139.462 347.828 140.096 348.23 140.623 348.742C141.004 349.336 141.257 349.995 141.367 350.682C141.477 351.368 141.443 352.069 141.266 352.743C141.001 354.298 140.509 355.829 140.106 357.361C139.703 358.893 139.236 360.626 138.846 362.252C137.03 369.051 135.228 375.862 133.438 382.685C129.871 396.255 126.215 409.825 122.887 423.455C122.472 425.141 122.068 426.827 121.69 428.525C121.682 428.556 121.687 428.589 121.705 428.617C121.722 428.645 121.751 428.665 121.785 428.673C121.818 428.681 121.853 428.676 121.883 428.659C121.912 428.642 121.934 428.615 121.942 428.584C124.035 421.852 125.724 415.014 127.602 408.211C129.48 401.408 131.282 394.605 133.085 387.802C134.888 380.999 136.69 374.279 138.467 367.512C139.308 364.101 140.199 360.693 141.14 357.29C141.757 354.785 142.993 351.745 141.997 349.24Z" fill="#455A64"/>
<path d="M161.182 432.288C155.472 431.956 149.749 431.825 144.026 431.647C138.304 431.469 132.606 431.398 126.896 431.493C123.644 431.493 120.404 431.754 117.152 431.801C117.026 431.801 117.039 431.979 117.152 431.979C122.875 431.979 128.585 432.407 134.308 432.43C140.03 432.454 145.728 432.43 151.438 432.43C154.678 432.43 157.93 432.537 161.182 432.514C161.384 432.49 161.384 432.3 161.182 432.288Z" fill="#455A64"/>
<path d="M81.5301 292.739C81.4599 292.974 81.3626 293.201 81.2402 293.416C81.2259 293.433 81.2181 293.454 81.2181 293.475C81.2181 293.497 81.2259 293.518 81.2402 293.535C80.0679 297.215 78.5931 301.002 75.1645 303.329C73.4035 304.507 71.4428 305.394 69.3662 305.953C66.946 306.618 64.4249 306.808 61.9922 307.437C61.9391 307.46 61.8956 307.499 61.8684 307.548C61.8413 307.597 61.832 307.653 61.8421 307.707C61.8522 307.761 61.881 307.811 61.9241 307.848C61.9672 307.885 62.0222 307.908 62.0804 307.912C64.8124 308.026 67.5474 307.762 70.1981 307.129C72.4838 306.645 74.633 305.706 76.5007 304.374C80.2822 301.489 81.3536 297.144 81.8579 292.763C81.8452 292.609 81.5805 292.609 81.5301 292.739Z" fill="#455A64"/>
<path d="M180.594 323.346C178.312 320.461 174.959 318.906 171.404 317.814C147.455 310.405 118.097 307.129 102.076 305.882C101.95 305.882 101.9 306.048 102.076 306.06C119.396 308.518 163.728 314.11 176.257 321.15C181.627 324.166 183.984 331.396 182.484 343.292C181.287 352.79 179.963 363 178.312 372.391C178.312 372.724 178.489 372.7 178.564 372.391C180.468 363.915 182.106 354.642 183.266 346.046C184.199 338.614 185.686 329.781 180.594 323.346Z" fill="#455A64"/>
<path d="M82.9417 189.057C77.2694 195.836 76.6392 205.999 76.6392 205.999C76.6392 205.999 71.7484 216.684 74.1181 221.944C74.7742 223.436 75.8052 224.756 77.1226 225.79C78.4401 226.824 80.0044 227.541 81.6812 227.88L80.7737 224.935C80.7737 224.935 83.2947 228.568 90.467 229.34C97.6393 230.112 106.501 227.061 110.976 224.247C113.65 222.6 115.823 220.325 117.278 217.646L116.018 222.217C118.242 221.723 120.303 220.719 122.016 219.294C123.729 217.869 125.042 216.067 125.837 214.048C128.963 206.854 116.257 198.472 115.022 196.501C113.787 194.53 110.597 179.476 93.9586 184.023C93.946 184.035 86.8493 184.403 82.9417 189.057Z" fill="#263238"/>
<path d="M79.2737 227.773C77.2059 226.986 75.4456 225.618 74.2317 223.855C72.9362 222.15 72.2879 220.084 72.3913 217.99C72.6994 215.503 73.4853 213.089 74.7107 210.867C75.8199 208.492 77.1056 206.248 78.1645 203.886C78.1645 203.755 78.0132 203.672 77.925 203.779C76.6385 205.622 75.4643 207.533 74.4081 209.501C73.2875 211.311 72.3989 213.24 71.7611 215.248C71.1815 217.104 71.1815 219.078 71.7611 220.935C72.2556 222.447 73.1388 223.822 74.3325 224.936C75.8108 226.129 77.4461 227.139 79.1981 227.939C79.2989 227.975 79.4502 227.809 79.2737 227.773Z" fill="#263238"/>
<path d="M126.366 206.961C123.619 201.594 117.82 198.65 113.95 194.15C111.845 191.705 110.106 188.938 107.522 186.908C107.522 186.849 107.358 186.908 107.421 187.015C109.398 188.975 111.148 191.128 112.639 193.438C114.38 195.627 116.352 197.644 118.526 199.457C122.383 202.876 126.984 206.913 126.896 212.315C126.896 214.82 125.635 217.705 123.114 218.774C123.013 218.774 123.114 218.976 123.203 218.916C124.205 218.399 125.084 217.694 125.787 216.844C126.489 215.995 126.999 215.019 127.287 213.977C127.891 211.611 127.564 209.118 126.366 206.961Z" fill="#263238"/>
<path d="M126.808 208.445C126.729 206.293 125.941 204.218 124.551 202.508C123.054 200.918 121.209 199.65 119.144 198.792C116.85 197.7 114.455 196.703 112.841 194.744C112.841 194.661 112.652 194.744 112.715 194.851C115.312 198.08 119.585 199.243 122.711 201.855C126.291 204.847 126.909 209.715 125.232 213.728C124.152 216.216 122.463 218.429 120.304 220.186C120.304 220.186 120.304 220.27 120.304 220.186C124.047 217.385 127.098 213.182 126.808 208.445Z" fill="#263238"/>
<path d="M110.711 242.744C120.064 250.699 153.392 274.978 165.606 272.176C173.61 270.336 201.518 254.261 203.195 245.416C203.926 241.569 189.972 223.44 186.48 226.016C182.989 228.592 161.005 242.269 157.715 242.804C154.425 243.338 120.707 229.744 109.627 227.678C90.5173 224.021 105.681 238.458 110.711 242.744Z" fill="#DD6A57"/>
<path d="M190.199 217.301C194.258 214.927 198.72 211.995 203.623 211.116C208.527 210.237 213.922 215.509 214.312 217.242C214.703 218.976 215.27 230.183 210.38 231.145C205.489 232.106 206.598 223.202 206.207 222.288C205.816 221.374 205.35 220.186 204.455 220.46C203.56 220.733 189.039 231.145 189.039 231.145L190.199 217.301Z" fill="#DD6A57"/>
<path d="M190.653 217.872C190.93 217.872 202.917 210.38 207.821 209.501C212.724 208.623 218.119 213.894 218.497 215.639C218.875 217.385 219.455 228.569 214.577 229.53C209.699 230.492 210.796 221.588 210.392 220.673C209.989 219.759 209.548 218.572 208.64 218.845C207.733 219.118 193.237 229.53 193.237 229.53L190.653 217.872Z" fill="#DD6A57"/>
<path d="M212.787 229.281C212.089 228.56 211.603 227.68 211.376 226.728C211.054 225.768 210.892 224.767 210.897 223.76C210.972 222.879 210.972 221.994 210.897 221.113C210.689 220.261 210.255 219.473 209.636 218.821C209.119 218.24 208.451 218.608 207.871 218.928C207.039 219.437 206.239 219.992 205.476 220.59C204.632 221.208 203.813 221.849 202.955 222.478C202.072 223.102 201.23 223.776 200.434 224.496C200.434 224.556 200.434 224.662 200.523 224.615C201.317 224.164 202.023 223.594 202.766 223.072C203.51 222.549 204.443 221.884 205.287 221.326C206.132 220.768 206.838 220.21 207.644 219.676C207.922 219.498 208.476 219.059 208.905 219.059C209.334 219.059 209.661 219.89 209.813 220.163C210.202 220.948 210.334 221.824 210.191 222.68C210.117 223.55 210.138 224.425 210.254 225.292C210.333 226.12 210.582 226.926 210.985 227.666C211.445 228.308 211.982 228.897 212.586 229.423C212.737 229.471 212.876 229.352 212.787 229.281Z" fill="#263238"/>
<path d="M177.858 232.985C177.858 232.985 188.787 218.738 191.094 215.853C195.707 210.119 217.464 196.275 220.703 195.29C223.943 194.305 226.565 200.466 211.88 210.297C204.14 215.485 203.649 220.377 204.317 222.882C204.985 225.387 208.678 229.625 213.14 228.616C217.602 227.607 219.216 220.78 223.224 219.261C227.233 217.741 226.086 225.494 224.069 230.231C221.877 234.866 218.332 238.819 213.846 241.628C210.228 243.789 199.174 251.126 199.174 251.126L177.858 232.985Z" fill="#DD6A57"/>
<path d="M218.245 224.496C216.821 226.075 215.233 228.058 213.002 228.604C210.771 229.15 208.867 228.022 207.392 226.443C205.812 224.925 204.91 222.894 204.871 220.768C204.984 218.816 205.693 216.936 206.913 215.355C208.408 213.432 210.192 211.725 212.208 210.285C212.22 210.279 212.231 210.271 212.239 210.261C212.247 210.251 212.253 210.239 212.256 210.226C212.258 210.214 212.258 210.201 212.254 210.188C212.25 210.176 212.244 210.164 212.235 210.155C212.225 210.145 212.214 210.138 212.201 210.133C212.189 210.128 212.175 210.126 212.161 210.128C212.148 210.129 212.134 210.133 212.123 210.139C212.111 210.146 212.101 210.155 212.094 210.166C210.191 211.449 204.254 215.248 204.153 220.911C204.207 223.078 205.141 225.142 206.762 226.681C208.149 228.189 209.976 229.542 212.22 229.281C214.943 228.949 216.796 226.443 218.384 224.532C218.472 224.437 218.321 224.413 218.245 224.496Z" fill="#263238"/>
<path d="M176.875 228.652L192.896 258.178C192.896 258.178 171.745 272.805 159.947 273.731C145.627 274.919 110.446 246.223 105.152 241.308C96.4798 233.234 94.8285 226.847 101.295 225.873C103.816 225.482 107.597 225.873 112.64 227.405C117.896 228.96 149.194 240.215 157.917 241.189C162.707 241.723 176.875 228.652 176.875 228.652Z" fill="#455A64"/>
<path d="M176.863 228.652L192.896 258.178C192.896 258.178 189.392 260.553 184.426 263.533C177.203 267.807 166.93 273.173 159.946 273.719C145.64 274.907 110.434 246.211 105.152 241.296C98.8494 235.455 96.3284 230.492 97.778 227.832C98.1563 227.265 98.6725 226.79 99.284 226.447C99.8954 226.105 100.585 225.904 101.295 225.862C103.816 225.482 107.597 225.862 112.639 227.405C117.896 228.96 149.194 240.215 157.917 241.189C162.707 241.723 176.863 228.652 176.863 228.652Z" fill="#455A64"/>
<path d="M192.896 258.178C192.896 258.178 189.392 260.553 184.426 263.533C181.262 265.397 177.543 267.475 173.749 269.267C168.858 271.571 163.879 273.411 159.884 273.719C145.577 274.907 110.371 246.211 105.089 241.296C98.7864 235.455 96.2654 230.492 97.715 227.832C97.8932 227.503 98.1422 227.212 98.4461 226.978C99.2403 226.359 100.208 225.972 101.232 225.862C103.753 225.482 107.534 225.862 112.576 227.405C117.833 228.96 149.131 240.215 157.854 241.189C162.707 241.735 176.863 228.663 176.863 228.663L192.896 258.178Z" fill="#455A64"/>
<path d="M186.354 259.591C183.833 255.294 174.279 237.378 172.489 233.365C172.363 233.092 172.489 232.95 172.69 233.223C180.531 245.914 184.3 255.163 186.556 259.496C186.594 259.603 186.417 259.698 186.354 259.591Z" fill="#263238"/>
<path d="M173.737 269.255C168.846 271.559 163.867 273.399 159.871 273.708C145.564 274.895 110.358 246.199 105.077 241.284C98.7739 235.443 96.2529 230.48 97.7025 227.82C97.8808 227.491 98.1297 227.2 98.4336 226.966L173.737 269.255Z" fill="#263238"/>
<path d="M51.3784 298.402C56.4205 299.091 68.4584 300.112 81.2778 301.133C101.723 302.724 124.261 304.267 124.261 304.267L120.48 267.463C120.48 267.463 125.711 260.339 124.753 253.441C123.644 245.653 110.433 229.637 109.022 228.402C104.244 224.211 97.3494 221.718 90.7443 225.066C89.3628 225.774 88.0905 226.657 86.9627 227.69C86.8809 227.755 86.805 227.827 86.7358 227.904C86.3703 228.236 85.9795 228.592 85.614 228.984C69.1895 245.689 51.3784 298.402 51.3784 298.402Z" fill="#455A64"/>
<path d="M80.9249 233.127C67.4374 250.414 49.8784 282.624 56.0423 287.741C69.5298 298.972 97.6393 312.234 111.215 313.326C115.186 313.647 122.56 289.177 119.875 286.019C117.19 282.861 83.3199 273.969 83.0173 271.535C82.8157 270.146 87.2401 254.747 91.0468 239.883C95.446 222.822 84.7821 228.177 80.9249 233.127Z" fill="#DD6A57"/>
<path d="M112.904 284.227C112.904 284.227 125.043 283.906 132.984 284.049C137.409 284.132 144.997 284.903 148.224 286.364C153.052 288.548 171.745 300.611 168.745 304.932C166.022 308.85 151.35 296.622 151.35 296.622C151.35 296.622 167.321 307.758 163.123 311.925C158.926 316.092 144.316 300.136 144.316 300.136C144.316 300.136 160.451 311.937 155.396 315.57C151.615 318.324 137.484 304.588 137.484 304.588C137.484 304.588 151.299 314.798 147.518 317.79C143.295 321.103 129.43 309.23 129.43 309.23C118.425 315.309 110.522 313.979 105.076 312.376C103.753 311.937 112.904 284.227 112.904 284.227Z" fill="#DD6A57"/>
<path d="M146.094 292.395C148.022 293.641 149.976 294.888 151.778 296.289C153.581 297.69 155.333 299.15 156.984 300.705C159.189 302.699 161.147 304.922 162.821 307.33C159.357 303.47 155.517 299.925 151.35 296.74C149.56 295.339 147.833 293.855 146.031 292.454L146.094 292.395Z" fill="#263238"/>
<path d="M140.598 298.426C142.993 300.124 145.425 301.715 147.732 303.507C150.039 305.3 152.043 307.164 154.199 309.088C154.362 309.242 154.199 309.277 154.047 309.088C151.816 307.247 149.585 305.704 147.329 303.887C145.072 302.071 142.879 300.159 140.547 298.426C140.522 298.45 140.56 298.402 140.598 298.426Z" fill="#263238"/>
<path d="M134.913 302.807C138.635 305.318 142.073 308.182 145.173 311.355C145.337 311.51 145.173 311.533 144.984 311.355C141.619 308.458 139.009 306.155 134.825 302.902C134.736 302.878 134.812 302.76 134.913 302.807Z" fill="#263238"/>
<path d="M97.6899 313.35L116.005 282.861C116.005 282.861 84.7318 272.568 83.9503 271.618C83.1688 270.668 89.3957 251.435 92.0176 238.779C94.6395 226.123 88.5638 223.107 78.6057 235.051C68.6477 246.995 50.3198 278.575 53.3954 286.269C56.4711 293.962 97.6899 313.35 97.6899 313.35Z" fill="#455A64"/>
<path d="M109.349 282.553C108.609 283.492 107.939 284.48 107.345 285.509L105.253 288.738C103.841 290.934 102.48 293.155 101.144 295.387C98.509 299.815 95.8998 304.267 93.2527 308.684C93.2527 308.791 93.3535 308.874 93.4292 308.779C96.3283 304.481 99.1897 300.183 101.95 295.802C103.324 293.641 104.648 291.457 105.896 289.237C106.526 288.121 107.156 287.005 107.761 285.889C108.405 284.835 108.969 283.74 109.45 282.612C109.476 282.553 109.387 282.517 109.349 282.553Z" fill="#263238"/>
<path d="M97.5638 313.124C91.8284 310.263 86.2192 307.188 80.5721 304.101C74.925 301.014 69.2274 297.904 63.8955 294.425C62.3828 293.44 60.8576 292.466 59.3702 291.445C57.8828 290.424 56.5215 289.308 54.9836 288.418C54.8702 288.346 54.7693 288.501 54.8576 288.572C55.9904 289.663 57.2173 290.664 58.5257 291.564C59.7862 292.537 61.1475 293.487 62.4837 294.425C65.0047 296.242 67.7652 297.987 70.4879 299.566C75.9586 302.866 81.6561 305.823 87.4419 308.601C90.7696 310.192 94.1604 311.676 97.526 313.29C97.5441 313.286 97.5606 313.277 97.5736 313.264C97.5866 313.251 97.5955 313.236 97.5995 313.218C97.6034 313.201 97.6021 313.183 97.5958 313.166C97.5895 313.15 97.5784 313.135 97.5638 313.124Z" fill="#263238"/>
<path d="M116.005 282.647C113.181 281.615 85.4879 271.677 84.3408 271.476C84.3408 270.668 86.7862 261.348 87.3283 259.188C87.4543 258.677 87.5677 258.178 87.6812 257.68C88.0972 256.694 88.5005 255.697 88.9417 254.7C89.5097 253.349 90.1664 252.032 90.9081 250.758C90.9215 250.736 90.925 250.71 90.9179 250.685C90.9108 250.661 90.8937 250.64 90.8703 250.628C90.8469 250.615 90.8191 250.612 90.7931 250.618C90.7671 250.625 90.745 250.641 90.7316 250.663C90.0131 251.969 89.282 253.287 88.6266 254.617L88.2862 255.317L88.8913 252.824C89.4081 250.616 90.0131 248.395 90.3535 246.152C90.3457 246.131 90.3313 246.112 90.3121 246.1C90.2929 246.087 90.2699 246.08 90.2463 246.08C90.2228 246.08 90.1998 246.087 90.1806 246.1C90.1614 246.112 90.1469 246.131 90.1392 246.152C89.2947 248.384 88.7022 250.699 88.0341 252.978C87.3661 255.258 83.5215 271.689 83.6602 271.796C84.6812 272.508 113.257 281.911 115.992 282.873C116.005 282.861 116.081 282.683 116.005 282.647Z" fill="#263238"/>
<path d="M166.829 317.458H102.039V320.2H166.829V317.458Z" fill="#FF6B35"/>
<path opacity="0.1" d="M166.829 317.458H134.219V320.2H166.829V317.458Z" fill="black"/>
<path d="M137.736 320.188H200.875L209.132 279.798H145.98L137.736 320.188Z" fill="#FF6B35"/>
<path d="M169.59 299.993C169.545 300.449 169.603 300.909 169.76 301.343C169.917 301.776 170.169 302.174 170.499 302.51C170.83 302.845 171.231 303.112 171.678 303.292C172.125 303.472 172.608 303.562 173.094 303.555C174.13 303.536 175.124 303.166 175.893 302.511C176.662 301.857 177.154 300.962 177.279 299.993C177.331 299.532 177.278 299.065 177.124 298.625C176.97 298.184 176.718 297.779 176.386 297.437C176.054 297.094 175.648 296.823 175.195 296.639C174.743 296.455 174.254 296.365 173.762 296.372C172.717 296.39 171.715 296.769 170.946 297.436C170.177 298.104 169.694 299.013 169.59 299.993Z" fill="white"/>
<path d="M92.7108 226.123C93.1015 227.061 99.0134 232.688 103.639 231.845C105.152 231.56 103.917 223.689 103.917 223.689V223.083L104.61 214.666L93.5049 209.917L91.9041 209.299C91.9041 209.299 91.9041 211.615 91.9041 214.5V214.915C91.9041 215.069 91.9041 215.224 91.9041 215.378C91.9041 215.806 91.9041 216.245 91.9041 216.684C91.9041 217.123 91.9041 217.349 91.9041 217.693C91.9041 218.038 91.9041 218.394 91.9041 218.738C92.0018 221.214 92.2713 223.68 92.7108 226.123Z" fill="#DD6A57"/>
<path d="M91.9292 214.476C93.1505 216.649 94.8603 218.545 96.9394 220.031C99.0185 221.518 101.417 222.559 103.967 223.083L104.66 214.666L93.5553 209.917L91.9544 209.299C91.9544 209.299 91.9292 211.591 91.9292 214.476Z" fill="#263238"/>
<path d="M114.467 200.003C118.11 214.417 109.349 218.097 106.047 218.833C103.047 219.498 92.7611 221.421 87.5551 207.436C82.3492 193.45 88.3114 187.252 95.1182 185.424C101.925 183.596 110.824 185.614 114.467 200.003Z" fill="#DD6A57"/>
<path d="M112.4 197.629C112.039 197.646 111.677 197.646 111.316 197.629C110.931 197.661 110.546 197.573 110.219 197.38C110.129 197.301 110.069 197.197 110.049 197.083C110.028 196.969 110.048 196.852 110.106 196.75C110.25 196.569 110.442 196.426 110.664 196.336C110.885 196.247 111.127 196.213 111.366 196.24C111.875 196.23 112.37 196.399 112.753 196.715C112.821 196.79 112.867 196.881 112.886 196.978C112.905 197.076 112.896 197.176 112.86 197.269C112.824 197.362 112.763 197.444 112.682 197.508C112.601 197.571 112.504 197.613 112.4 197.629Z" fill="#263238"/>
<path d="M102.492 199.398C102.835 199.293 103.172 199.17 103.501 199.03C103.877 198.95 104.214 198.753 104.459 198.472C104.519 198.369 104.541 198.249 104.521 198.133C104.5 198.016 104.438 197.91 104.345 197.831C104.142 197.699 103.905 197.621 103.659 197.604C103.413 197.588 103.167 197.633 102.946 197.736C102.467 197.887 102.06 198.194 101.799 198.602C101.744 198.7 101.722 198.81 101.733 198.919C101.745 199.029 101.791 199.132 101.865 199.217C101.939 199.302 102.038 199.365 102.15 199.397C102.261 199.429 102.38 199.429 102.492 199.398Z" fill="#263238"/>
<path d="M105.202 202.77C105.202 202.77 105.139 202.77 105.139 202.877C105.379 203.862 105.467 205.025 104.585 205.524C105.732 205.215 105.593 203.672 105.202 202.77Z" fill="#263238"/>
<path d="M104.055 201.903C102.341 202.081 102.795 205.31 104.446 205.132C106.097 204.954 105.492 201.749 104.055 201.903Z" fill="#263238"/>
<path d="M103.4 202.164C103.135 202.39 102.896 202.758 102.53 202.841C102.165 202.924 101.761 202.639 101.434 202.354C101.522 202.971 101.875 203.541 102.593 203.541C103.312 203.541 103.614 202.924 103.677 202.283C103.652 202.235 103.526 202.081 103.4 202.164Z" fill="#263238"/>
<path d="M110.963 201.547C110.963 201.547 111.051 201.547 111.051 201.618C111.165 202.627 111.48 203.755 112.488 203.993C111.341 204.016 110.963 202.509 110.963 201.547Z" fill="#263238"/>
<path d="M111.782 200.371C113.472 200.027 114.089 203.233 112.526 203.553C110.963 203.874 110.371 200.668 111.782 200.371Z" fill="#263238"/>
<path d="M112.539 200.466C112.841 200.585 113.169 200.846 113.484 200.811C113.799 200.775 114.076 200.383 114.253 200.003C114.391 200.609 114.253 201.286 113.698 201.511C113.144 201.737 112.627 201.262 112.362 200.668C112.362 200.597 112.412 200.419 112.539 200.466Z" fill="#263238"/>
<path d="M106.161 210.51C106.45 210.724 106.74 211.021 107.131 211.009C107.524 210.966 107.902 210.845 108.24 210.653C108.24 210.653 108.316 210.653 108.24 210.653C108.115 210.863 107.932 211.036 107.71 211.155C107.488 211.275 107.235 211.335 106.98 211.33C106.757 211.298 106.549 211.204 106.383 211.06C106.217 210.916 106.1 210.729 106.047 210.522C106.047 210.51 106.123 210.487 106.161 210.51Z" fill="#263238"/>
<path d="M109.967 206.236C110.204 206.947 110.401 207.668 110.56 208.397C110.56 208.468 110.396 208.516 110.144 208.575C109.522 208.782 108.853 208.824 108.208 208.696C107.563 208.568 106.968 208.276 106.488 207.851C106.425 207.792 106.488 207.709 106.589 207.744C107.644 208.206 108.827 208.339 109.967 208.124C109.967 207.922 109.072 205.655 109.186 205.631C109.772 205.592 110.361 205.628 110.938 205.738C110.055 202.675 108.644 199.802 107.812 196.727C107.81 196.707 107.814 196.686 107.825 196.669C107.836 196.652 107.853 196.638 107.872 196.63C107.892 196.622 107.914 196.621 107.935 196.625C107.955 196.63 107.974 196.64 107.988 196.655C109.584 199.718 110.851 202.924 111.77 206.225C111.908 206.604 110.295 206.319 109.967 206.236Z" fill="#263238"/>
<path d="M109.992 208.041C109.732 208.695 109.298 209.276 108.732 209.727C108.403 209.959 108.008 210.091 107.597 210.107C106.702 210.107 106.463 209.395 106.438 208.742C106.425 208.391 106.455 208.041 106.526 207.697C107.615 208.15 108.827 208.27 109.992 208.041Z" fill="#263238"/>
<path d="M108.669 209.727C108.34 209.959 107.945 210.091 107.534 210.107C106.639 210.107 106.4 209.395 106.375 208.742C106.819 208.638 107.288 208.679 107.704 208.858C108.12 209.037 108.461 209.343 108.669 209.727Z" fill="#FFA2BE"/>
<path d="M87.6811 207.519C89.4458 207.151 93.2652 201.832 91.992 193.723C91.992 193.723 92.5971 201.072 92.2063 202.224C91.8156 203.375 94.3366 199.232 93.4038 192.726C95.8414 193.861 98.4393 194.66 101.118 195.1C104.534 195.456 106.526 195.1 106.715 194.863C106.904 194.625 101.862 193.913 100.311 192.702C100.311 192.702 109.664 195.159 113.723 194.827C114.19 194.827 113.181 185.733 106.311 182.883C99.4417 180.034 90.366 185.673 88.1475 188.475C88.1475 188.475 85.1222 189.378 82.513 194.21C79.9037 199.042 85.7525 207.922 87.6811 207.519Z" fill="#263238"/>
<path d="M110.307 202.378C109.765 199.897 110.736 197.629 112.488 197.249C114.24 196.869 116.106 198.65 116.66 201.143C117.215 203.636 116.232 205.892 114.48 206.284C112.728 206.676 110.862 204.812 110.307 202.378ZM110.95 202.259C111.429 204.408 112.954 205.94 114.341 205.678C115.728 205.417 116.484 203.423 116.018 201.262C115.551 199.101 114.013 197.581 112.614 197.855C111.215 198.128 110.484 200.003 110.963 202.2L110.95 202.259Z" fill="#FF6B35"/>
<path d="M98.257 204.681C98.1353 203.846 98.2753 202.996 98.6597 202.236C99.0442 201.475 99.6563 200.837 100.421 200.399C101.185 199.962 102.069 199.745 102.963 199.774C103.857 199.804 104.722 200.078 105.452 200.565C106.183 201.051 106.746 201.728 107.073 202.513C107.4 203.297 107.477 204.154 107.294 204.978C107.11 205.803 106.675 206.559 106.042 207.154C105.408 207.749 104.604 208.156 103.728 208.326C102.489 208.526 101.217 208.254 100.191 207.57C99.1653 206.887 98.4696 205.848 98.257 204.681ZM98.8999 204.55C99.1138 205.239 99.5359 205.854 100.115 206.32C100.694 206.786 101.404 207.083 102.159 207.175C102.915 207.267 103.682 207.15 104.368 206.838C105.054 206.526 105.628 206.032 106.021 205.418C106.414 204.803 106.608 204.094 106.58 203.378C106.552 202.661 106.303 201.967 105.863 201.381C105.423 200.796 104.812 200.343 104.104 200.08C103.395 199.816 102.621 199.752 101.875 199.896C100.828 200.146 99.9275 200.775 99.3704 201.647C98.8133 202.518 98.6442 203.562 98.8999 204.55Z" fill="#FF6B35"/>
<path d="M106.904 202.568C109.135 201.297 110.383 201.832 110.396 201.832L110.686 201.286C110.686 201.286 109.135 200.573 106.564 202.034L106.904 202.568Z" fill="#FF6B35"/>
<path d="M98.4838 204.218V203.565C98.0553 203.565 90.7695 203.66 89.6602 203.814C88.551 203.969 86.2064 205.868 85.9543 206.082L86.3829 206.545C87.3638 205.676 88.4876 204.962 89.7107 204.432C90.6056 204.337 94.841 204.301 98.4838 204.218Z" fill="#FF6B35"/>
<path d="M90.2653 208.029C90.2653 208.029 86.1434 203.933 84.1266 205.382C82.1098 206.83 85.6897 213.099 88.425 213.692C88.7694 213.787 89.1305 213.814 89.4866 213.773C89.8426 213.732 90.186 213.623 90.4961 213.454C90.8061 213.284 91.0763 213.056 91.2901 212.785C91.504 212.514 91.6571 212.205 91.7401 211.876L90.2653 208.029Z" fill="#DD6A57"/>
<path d="M85.1982 207.127C85.1982 207.127 85.1982 207.127 85.1982 207.198C86.0931 207.472 86.9167 207.92 87.6159 208.514C88.3151 209.107 88.8743 209.832 89.2571 210.641C89.1254 210.484 88.959 210.356 88.7693 210.266C88.5797 210.175 88.3715 210.125 88.1591 210.118C87.9467 210.111 87.7353 210.148 87.5396 210.226C87.344 210.304 87.1687 210.422 87.026 210.57C87.026 210.57 87.026 210.665 87.026 210.653C87.3293 210.51 87.6728 210.46 88.0077 210.511C88.3426 210.562 88.6519 210.712 88.8915 210.938C89.2888 211.297 89.6438 211.695 89.9504 212.125C90.0638 212.268 90.3411 212.125 90.2529 211.971C90.0008 209.822 87.7193 207.02 85.1982 207.127Z" fill="#263238"/>
<path d="M103.992 223.642L102.328 231.715L92.3199 223.487L89.5342 226.669C89.5342 226.669 101.106 240.916 101.03 240.192L102.984 233.139L108.631 236.772L106.173 226.622L103.992 223.642Z" fill="#EBEBEB"/>
<path d="M106.274 226.705C106.274 226.645 106.123 226.633 106.135 226.705C106.349 228.438 107.862 234.517 108.202 236.203C107.963 236.036 103.009 233.044 102.984 233.116C102.48 234.303 101.043 239.408 100.967 239.859C98.9376 237.746 91.7023 228.592 89.4207 226.657C89.4066 226.651 89.3908 226.649 89.3753 226.651C89.3599 226.654 89.3457 226.661 89.3346 226.671C89.3236 226.681 89.3162 226.695 89.3136 226.709C89.3109 226.724 89.3131 226.739 89.3199 226.752C91.1854 229.032 100.942 240.857 101.055 240.797C101.875 238.352 102.552 235.867 103.085 233.353C104.97 234.77 106.954 236.067 109.022 237.235C108.707 235.371 106.879 228.497 106.274 226.705Z" fill="#263238"/>
</svg>
